<mxfile host="app.diagrams.net" modified="2023-07-28T08:57:49.989Z" agent="Mozilla/5.0 (Macintosh; Intel Mac OS X 10_15_7) AppleWebKit/537.36 (KHTML, like Gecko) Chrome/114.0.0.0 Safari/537.36" etag="EOwLzqOkE_p22RVRqqWo" version="21.6.3" type="github">
  <diagram name="第 1 页" id="Zm4_9ub19sLm1HkvOvjO">
    <mxGraphModel dx="-407" dy="1162" grid="1" gridSize="10" guides="1" tooltips="1" connect="1" arrows="1" fold="1" page="1" pageScale="1" pageWidth="827" pageHeight="1169" math="0" shadow="0">
      <root>
        <mxCell id="0" />
        <mxCell id="1" parent="0" />
        <mxCell id="YUqy2N8KnSU7vUjBaJCi-1" value="" style="shape=stencil(tZTbjoMgEIafhtuGw3bvG3b7HlSnldSCi/T09ouATcVqD9HEmMw/8M1PhgExXheiAkRxgdgPopRg7P4uPiexqCvIbBBPwkixKSFkamv0Hs4yt5EhVQFG2ibLfhFeuTXNx3imlXIQqVXdydzlHUxI5fbiS4DF8tdOVDn+ASyYaDKoiK5fxy6W84DJTH672Nb95H6nA3cdk7kaNxmYfI5l3ClDl5vxjcj2O6OPKn9ophLN4PQSbfqgT/BkHB4fswWUUt0BbgP9DuLvKPIGQcKe7xYR42WMLzStkQrvOE0u0GuIxOnXE6eJz9ESvsu9Znl1oMOMb7WBkdZvZVmG53Ok6uACX7pXwavhVffCPw==);whiteSpace=wrap;html=1;fillStyle=auto;shadow=0;fillColor=#ffe6cc;strokeColor=#d79b00;fontSize=24;fontFamily=Courier New;" vertex="1" parent="1">
          <mxGeometry x="2810" y="737.5" width="50" height="40" as="geometry" />
        </mxCell>
        <mxCell id="YUqy2N8KnSU7vUjBaJCi-2" value="" style="shape=stencil(tZTZbsMgEEW/hsdWLIqU14q2/0HsSY3igIvJ9vfBgJMYL00jW7IszR185uKBQYzXhagAUVwg9okoJRi7t4tPSSzqCjIbxKMwUmxKCJnaGr2Dk8xtZEhVgJG2ybIvhD/cmuZhPNNKOYjUqu5kHvIOJqRy3+JzgMXyl05UOf4eLJhoMqiIfj+PfV8tAyYL+e1iW/ez+50P3HVMlmrcbGDyOpZxp4wdbsY3Itv9GH1Q+aCZSjQXp5do03t9hLvL4fswvM+WUEr1QFi/QPg9iLwhkPgbbi6isIrxmSY1aDJF/mM0PUHPMRKrb39ZpYnVySK+0b1+eXWkyYxvtYGJ7m9lWYYJOlF1dIEv3avg1TDYvXAF);whiteSpace=wrap;html=1;fillColor=#ffe6cc;strokeColor=#d79b00;fontSize=24;fontFamily=Courier New;" vertex="1" parent="1">
          <mxGeometry x="2850" y="737.5" width="50" height="40" as="geometry" />
        </mxCell>
        <mxCell id="YUqy2N8KnSU7vUjBaJCi-3" value="" style="shape=stencil(tZTbjoMgEIafhtuGw3bvG3b7HlSnldSCi/T09ouATcVqD9HEmMw/8M1PhgExXheiAkRxgdgPopRg7P4uPiexqCvIbBBPwkixKSFkamv0Hs4yt5EhVQFG2ibLfhFeuTXNx3imlXIQqVXdydzlHUxI5fbiS4DF8tdOVDn+ASyYaDKoiK5fxy6W84DJTH672Nb95H6nA3cdk7kaNxmYfI5l3ClDl5vxjcj2O6OPKn9ophLN4PQSbfqgT/BkHB4fswWUUt0BbgP9DuLvKPIGQcKe7xYR42WMLzStkQrvOE0u0GuIxOnXE6eJz9ESvsu9Znl1oMOMb7WBkdZvZVmG53Ok6uACX7pXwavhVffCPw==);whiteSpace=wrap;html=1;fillStyle=auto;shadow=0;fillColor=#dae8fc;strokeColor=#6c8ebf;fontSize=24;fontFamily=Courier New;" vertex="1" parent="1">
          <mxGeometry x="2890" y="737.5" width="50" height="40" as="geometry" />
        </mxCell>
        <mxCell id="YUqy2N8KnSU7vUjBaJCi-4" value="" style="shape=stencil(tZTZbsMgEEW/hsdWLIqU14q2/0HsSY3igIvJ9vfBgJMYL00jW7IszR185uKBQYzXhagAUVwg9okoJRi7t4tPSSzqCjIbxKMwUmxKCJnaGr2Dk8xtZEhVgJG2ybIvhD/cmuZhPNNKOYjUqu5kHvIOJqRy3+JzgMXyl05UOf4eLJhoMqiIfj+PfV8tAyYL+e1iW/ez+50P3HVMlmrcbGDyOpZxp4wdbsY3Itv9GH1Q+aCZSjQXp5do03t9hLvL4fswvM+WUEr1QFi/QPg9iLwhkPgbbi6isIrxmSY1aDJF/mM0PUHPMRKrb39ZpYnVySK+0b1+eXWkyYxvtYGJ7m9lWYYJOlF1dIEv3avg1TDYvXAF);whiteSpace=wrap;html=1;fillColor=#dae8fc;strokeColor=#6c8ebf;fontSize=24;fontFamily=Courier New;" vertex="1" parent="1">
          <mxGeometry x="2930" y="737.5" width="50" height="40" as="geometry" />
        </mxCell>
        <mxCell id="YUqy2N8KnSU7vUjBaJCi-5" value="" style="shape=stencil(tZTbjoMgEIafhtuGw3bvG3b7HlSnldSCi/T09ouATcVqD9HEmMw/8M1PhgExXheiAkRxgdgPopRg7P4uPiexqCvIbBBPwkixKSFkamv0Hs4yt5EhVQFG2ibLfhFeuTXNx3imlXIQqVXdydzlHUxI5fbiS4DF8tdOVDn+ASyYaDKoiK5fxy6W84DJTH672Nb95H6nA3cdk7kaNxmYfI5l3ClDl5vxjcj2O6OPKn9ophLN4PQSbfqgT/BkHB4fswWUUt0BbgP9DuLvKPIGQcKe7xYR42WMLzStkQrvOE0u0GuIxOnXE6eJz9ESvsu9Znl1oMOMb7WBkdZvZVmG53Ok6uACX7pXwavhVffCPw==);whiteSpace=wrap;html=1;fillStyle=auto;shadow=0;fillColor=#ffe6cc;strokeColor=#d79b00;fontSize=24;fontFamily=Courier New;" vertex="1" parent="1">
          <mxGeometry x="2890" y="527.5" width="50" height="40" as="geometry" />
        </mxCell>
        <mxCell id="YUqy2N8KnSU7vUjBaJCi-6" value="" style="shape=stencil(tZTZbsMgEEW/hsdWLIqU14q2/0HsSY3igIvJ9vfBgJMYL00jW7IszR185uKBQYzXhagAUVwg9okoJRi7t4tPSSzqCjIbxKMwUmxKCJnaGr2Dk8xtZEhVgJG2ybIvhD/cmuZhPNNKOYjUqu5kHvIOJqRy3+JzgMXyl05UOf4eLJhoMqiIfj+PfV8tAyYL+e1iW/ez+50P3HVMlmrcbGDyOpZxp4wdbsY3Itv9GH1Q+aCZSjQXp5do03t9hLvL4fswvM+WUEr1QFi/QPg9iLwhkPgbbi6isIrxmSY1aDJF/mM0PUHPMRKrb39ZpYnVySK+0b1+eXWkyYxvtYGJ7m9lWYYJOlF1dIEv3avg1TDYvXAF);whiteSpace=wrap;html=1;fillColor=#ffe6cc;strokeColor=#d79b00;fontSize=24;fontFamily=Courier New;" vertex="1" parent="1">
          <mxGeometry x="2930" y="527.5" width="50" height="40" as="geometry" />
        </mxCell>
        <mxCell id="YUqy2N8KnSU7vUjBaJCi-7" value="" style="shape=stencil(tZTbjoMgEIafhtuGw3bvG3b7HlSnldSCi/T09ouATcVqD9HEmMw/8M1PhgExXheiAkRxgdgPopRg7P4uPiexqCvIbBBPwkixKSFkamv0Hs4yt5EhVQFG2ibLfhFeuTXNx3imlXIQqVXdydzlHUxI5fbiS4DF8tdOVDn+ASyYaDKoiK5fxy6W84DJTH672Nb95H6nA3cdk7kaNxmYfI5l3ClDl5vxjcj2O6OPKn9ophLN4PQSbfqgT/BkHB4fswWUUt0BbgP9DuLvKPIGQcKe7xYR42WMLzStkQrvOE0u0GuIxOnXE6eJz9ESvsu9Znl1oMOMb7WBkdZvZVmG53Ok6uACX7pXwavhVffCPw==);whiteSpace=wrap;html=1;fillStyle=auto;shadow=0;fillColor=#dae8fc;strokeColor=#6c8ebf;fontSize=24;fontFamily=Courier New;" vertex="1" parent="1">
          <mxGeometry x="2810" y="527.5" width="50" height="40" as="geometry" />
        </mxCell>
        <mxCell id="YUqy2N8KnSU7vUjBaJCi-8" value="" style="shape=stencil(tZTZbsMgEEW/hsdWLIqU14q2/0HsSY3igIvJ9vfBgJMYL00jW7IszR185uKBQYzXhagAUVwg9okoJRi7t4tPSSzqCjIbxKMwUmxKCJnaGr2Dk8xtZEhVgJG2ybIvhD/cmuZhPNNKOYjUqu5kHvIOJqRy3+JzgMXyl05UOf4eLJhoMqiIfj+PfV8tAyYL+e1iW/ez+50P3HVMlmrcbGDyOpZxp4wdbsY3Itv9GH1Q+aCZSjQXp5do03t9hLvL4fswvM+WUEr1QFi/QPg9iLwhkPgbbi6isIrxmSY1aDJF/mM0PUHPMRKrb39ZpYnVySK+0b1+eXWkyYxvtYGJ7m9lWYYJOlF1dIEv3avg1TDYvXAF);whiteSpace=wrap;html=1;fillColor=#dae8fc;strokeColor=#6c8ebf;fontSize=24;fontFamily=Courier New;" vertex="1" parent="1">
          <mxGeometry x="2850" y="527.5" width="50" height="40" as="geometry" />
        </mxCell>
        <mxCell id="YUqy2N8KnSU7vUjBaJCi-9" value="" style="shape=stencil(tZTbjoMgEIafhtuGw3bvG3b7HlSnldSCi/T09ouATcVqD9HEmMw/8M1PhgExXheiAkRxgdgPopRg7P4uPiexqCvIbBBPwkixKSFkamv0Hs4yt5EhVQFG2ibLfhFeuTXNx3imlXIQqVXdydzlHUxI5fbiS4DF8tdOVDn+ASyYaDKoiK5fxy6W84DJTH672Nb95H6nA3cdk7kaNxmYfI5l3ClDl5vxjcj2O6OPKn9ophLN4PQSbfqgT/BkHB4fswWUUt0BbgP9DuLvKPIGQcKe7xYR42WMLzStkQrvOE0u0GuIxOnXE6eJz9ESvsu9Znl1oMOMb7WBkdZvZVmG53Ok6uACX7pXwavhVffCPw==);whiteSpace=wrap;html=1;fillStyle=auto;shadow=0;fillColor=#ffe6cc;strokeColor=#d79b00;fontSize=24;fontFamily=Courier New;" vertex="1" parent="1">
          <mxGeometry x="2888.13" y="667.5" width="50" height="40" as="geometry" />
        </mxCell>
        <mxCell id="YUqy2N8KnSU7vUjBaJCi-10" value="" style="shape=stencil(tZTZbsMgEEW/hsdWLIqU14q2/0HsSY3igIvJ9vfBgJMYL00jW7IszR185uKBQYzXhagAUVwg9okoJRi7t4tPSSzqCjIbxKMwUmxKCJnaGr2Dk8xtZEhVgJG2ybIvhD/cmuZhPNNKOYjUqu5kHvIOJqRy3+JzgMXyl05UOf4eLJhoMqiIfj+PfV8tAyYL+e1iW/ez+50P3HVMlmrcbGDyOpZxp4wdbsY3Itv9GH1Q+aCZSjQXp5do03t9hLvL4fswvM+WUEr1QFi/QPg9iLwhkPgbbi6isIrxmSY1aDJF/mM0PUHPMRKrb39ZpYnVySK+0b1+eXWkyYxvtYGJ7m9lWYYJOlF1dIEv3avg1TDYvXAF);whiteSpace=wrap;html=1;fillColor=#ffe6cc;strokeColor=#d79b00;fontSize=24;fontFamily=Courier New;" vertex="1" parent="1">
          <mxGeometry x="2928.13" y="667.5" width="50" height="40" as="geometry" />
        </mxCell>
        <mxCell id="YUqy2N8KnSU7vUjBaJCi-11" value="" style="shape=stencil(tZTbjoMgEIafhtuGw3bvG3b7HlSnldSCi/T09ouATcVqD9HEmMw/8M1PhgExXheiAkRxgdgPopRg7P4uPiexqCvIbBBPwkixKSFkamv0Hs4yt5EhVQFG2ibLfhFeuTXNx3imlXIQqVXdydzlHUxI5fbiS4DF8tdOVDn+ASyYaDKoiK5fxy6W84DJTH672Nb95H6nA3cdk7kaNxmYfI5l3ClDl5vxjcj2O6OPKn9ophLN4PQSbfqgT/BkHB4fswWUUt0BbgP9DuLvKPIGQcKe7xYR42WMLzStkQrvOE0u0GuIxOnXE6eJz9ESvsu9Znl1oMOMb7WBkdZvZVmG53Ok6uACX7pXwavhVffCPw==);whiteSpace=wrap;html=1;fillStyle=auto;shadow=0;fillColor=#dae8fc;strokeColor=#6c8ebf;fontSize=24;fontFamily=Courier New;" vertex="1" parent="1">
          <mxGeometry x="2808.13" y="667.5" width="50" height="40" as="geometry" />
        </mxCell>
        <mxCell id="YUqy2N8KnSU7vUjBaJCi-12" value="" style="shape=stencil(tZTZbsMgEEW/hsdWLIqU14q2/0HsSY3igIvJ9vfBgJMYL00jW7IszR185uKBQYzXhagAUVwg9okoJRi7t4tPSSzqCjIbxKMwUmxKCJnaGr2Dk8xtZEhVgJG2ybIvhD/cmuZhPNNKOYjUqu5kHvIOJqRy3+JzgMXyl05UOf4eLJhoMqiIfj+PfV8tAyYL+e1iW/ez+50P3HVMlmrcbGDyOpZxp4wdbsY3Itv9GH1Q+aCZSjQXp5do03t9hLvL4fswvM+WUEr1QFi/QPg9iLwhkPgbbi6isIrxmSY1aDJF/mM0PUHPMRKrb39ZpYnVySK+0b1+eXWkyYxvtYGJ7m9lWYYJOlF1dIEv3avg1TDYvXAF);whiteSpace=wrap;html=1;fillColor=#dae8fc;strokeColor=#6c8ebf;fontSize=24;fontFamily=Courier New;" vertex="1" parent="1">
          <mxGeometry x="2848.13" y="667.5" width="50" height="40" as="geometry" />
        </mxCell>
        <mxCell id="YUqy2N8KnSU7vUjBaJCi-13" value="" style="shape=stencil(tZTbjoMgEIafhtuGw3bvG3b7HlSnldSCi/T09ouATcVqD9HEmMw/8M1PhgExXheiAkRxgdgPopRg7P4uPiexqCvIbBBPwkixKSFkamv0Hs4yt5EhVQFG2ibLfhFeuTXNx3imlXIQqVXdydzlHUxI5fbiS4DF8tdOVDn+ASyYaDKoiK5fxy6W84DJTH672Nb95H6nA3cdk7kaNxmYfI5l3ClDl5vxjcj2O6OPKn9ophLN4PQSbfqgT/BkHB4fswWUUt0BbgP9DuLvKPIGQcKe7xYR42WMLzStkQrvOE0u0GuIxOnXE6eJz9ESvsu9Znl1oMOMb7WBkdZvZVmG53Ok6uACX7pXwavhVffCPw==);whiteSpace=wrap;html=1;fillStyle=auto;shadow=0;fillColor=#ffe6cc;strokeColor=#d79b00;fontSize=24;fontFamily=Courier New;" vertex="1" parent="1">
          <mxGeometry x="2890.63" y="807.5" width="50" height="40" as="geometry" />
        </mxCell>
        <mxCell id="YUqy2N8KnSU7vUjBaJCi-14" value="" style="shape=stencil(tZTZbsMgEEW/hsdWLIqU14q2/0HsSY3igIvJ9vfBgJMYL00jW7IszR185uKBQYzXhagAUVwg9okoJRi7t4tPSSzqCjIbxKMwUmxKCJnaGr2Dk8xtZEhVgJG2ybIvhD/cmuZhPNNKOYjUqu5kHvIOJqRy3+JzgMXyl05UOf4eLJhoMqiIfj+PfV8tAyYL+e1iW/ez+50P3HVMlmrcbGDyOpZxp4wdbsY3Itv9GH1Q+aCZSjQXp5do03t9hLvL4fswvM+WUEr1QFi/QPg9iLwhkPgbbi6isIrxmSY1aDJF/mM0PUHPMRKrb39ZpYnVySK+0b1+eXWkyYxvtYGJ7m9lWYYJOlF1dIEv3avg1TDYvXAF);whiteSpace=wrap;html=1;fillColor=#ffe6cc;strokeColor=#d79b00;fontSize=24;fontFamily=Courier New;" vertex="1" parent="1">
          <mxGeometry x="2930.63" y="807.5" width="50" height="40" as="geometry" />
        </mxCell>
        <mxCell id="YUqy2N8KnSU7vUjBaJCi-15" value="" style="shape=stencil(tZTbjoMgEIafhtuGw3bvG3b7HlSnldSCi/T09ouATcVqD9HEmMw/8M1PhgExXheiAkRxgdgPopRg7P4uPiexqCvIbBBPwkixKSFkamv0Hs4yt5EhVQFG2ibLfhFeuTXNx3imlXIQqVXdydzlHUxI5fbiS4DF8tdOVDn+ASyYaDKoiK5fxy6W84DJTH672Nb95H6nA3cdk7kaNxmYfI5l3ClDl5vxjcj2O6OPKn9ophLN4PQSbfqgT/BkHB4fswWUUt0BbgP9DuLvKPIGQcKe7xYR42WMLzStkQrvOE0u0GuIxOnXE6eJz9ESvsu9Znl1oMOMb7WBkdZvZVmG53Ok6uACX7pXwavhVffCPw==);whiteSpace=wrap;html=1;fillStyle=auto;shadow=0;fillColor=#dae8fc;strokeColor=#6c8ebf;fontSize=24;fontFamily=Courier New;" vertex="1" parent="1">
          <mxGeometry x="2810.63" y="807.5" width="50" height="40" as="geometry" />
        </mxCell>
        <mxCell id="YUqy2N8KnSU7vUjBaJCi-16" value="" style="shape=stencil(tZTZbsMgEEW/hsdWLIqU14q2/0HsSY3igIvJ9vfBgJMYL00jW7IszR185uKBQYzXhagAUVwg9okoJRi7t4tPSSzqCjIbxKMwUmxKCJnaGr2Dk8xtZEhVgJG2ybIvhD/cmuZhPNNKOYjUqu5kHvIOJqRy3+JzgMXyl05UOf4eLJhoMqiIfj+PfV8tAyYL+e1iW/ez+50P3HVMlmrcbGDyOpZxp4wdbsY3Itv9GH1Q+aCZSjQXp5do03t9hLvL4fswvM+WUEr1QFi/QPg9iLwhkPgbbi6isIrxmSY1aDJF/mM0PUHPMRKrb39ZpYnVySK+0b1+eXWkyYxvtYGJ7m9lWYYJOlF1dIEv3avg1TDYvXAF);whiteSpace=wrap;html=1;fillColor=#dae8fc;strokeColor=#6c8ebf;fontSize=24;fontFamily=Courier New;" vertex="1" parent="1">
          <mxGeometry x="2850.63" y="807.5" width="50" height="40" as="geometry" />
        </mxCell>
        <mxCell id="YUqy2N8KnSU7vUjBaJCi-17" value="" style="shape=stencil(tZTZbsMgEEW/hsdWLIqU14q2/0HsSY3igIvJ9vfBgJMYL00jW7IszR185uKBQYzXhagAUVwg9okoJRi7t4tPSSzqCjIbxKMwUmxKCJnaGr2Dk8xtZEhVgJG2ybIvhD/cmuZhPNNKOYjUqu5kHvIOJqRy3+JzgMXyl05UOf4eLJhoMqiIfj+PfV8tAyYL+e1iW/ez+50P3HVMlmrcbGDyOpZxp4wdbsY3Itv9GH1Q+aCZSjQXp5do03t9hLvL4fswvM+WUEr1QFi/QPg9iLwhkPgbbi6isIrxmSY1aDJF/mM0PUHPMRKrb39ZpYnVySK+0b1+eXWkyYxvtYGJ7m9lWYYJOlF1dIEv3avg1TDYvXAF);whiteSpace=wrap;html=1;rotation=90;fillColor=#dae8fc;strokeColor=#6c8ebf;fontSize=24;fontFamily=Courier New;" vertex="1" parent="1">
          <mxGeometry x="3085" y="562.5" width="50" height="40" as="geometry" />
        </mxCell>
        <mxCell id="YUqy2N8KnSU7vUjBaJCi-18" value="" style="shape=stencil(tZTZbsMgEEW/hsdWLIqU14q2/0HsSY3igIvJ9vfBgJMYL00jW7IszR185uKBQYzXhagAUVwg9okoJRi7t4tPSSzqCjIbxKMwUmxKCJnaGr2Dk8xtZEhVgJG2ybIvhD/cmuZhPNNKOYjUqu5kHvIOJqRy3+JzgMXyl05UOf4eLJhoMqiIfj+PfV8tAyYL+e1iW/ez+50P3HVMlmrcbGDyOpZxp4wdbsY3Itv9GH1Q+aCZSjQXp5do03t9hLvL4fswvM+WUEr1QFi/QPg9iLwhkPgbbi6isIrxmSY1aDJF/mM0PUHPMRKrb39ZpYnVySK+0b1+eXWkyYxvtYGJ7m9lWYYJOlF1dIEv3avg1TDYvXAF);whiteSpace=wrap;html=1;rotation=90;fillColor=#dae8fc;strokeColor=#6c8ebf;fontSize=24;fontFamily=Courier New;" vertex="1" parent="1">
          <mxGeometry x="3125" y="562.5" width="50" height="40" as="geometry" />
        </mxCell>
        <mxCell id="YUqy2N8KnSU7vUjBaJCi-19" value="" style="shape=stencil(tZTZbsMgEEW/hsdWLIqU14q2/0HsSY3igIvJ9vfBgJMYL00jW7IszR185uKBQYzXhagAUVwg9okoJRi7t4tPSSzqCjIbxKMwUmxKCJnaGr2Dk8xtZEhVgJG2ybIvhD/cmuZhPNNKOYjUqu5kHvIOJqRy3+JzgMXyl05UOf4eLJhoMqiIfj+PfV8tAyYL+e1iW/ez+50P3HVMlmrcbGDyOpZxp4wdbsY3Itv9GH1Q+aCZSjQXp5do03t9hLvL4fswvM+WUEr1QFi/QPg9iLwhkPgbbi6isIrxmSY1aDJF/mM0PUHPMRKrb39ZpYnVySK+0b1+eXWkyYxvtYGJ7m9lWYYJOlF1dIEv3avg1TDYvXAF);whiteSpace=wrap;html=1;rotation=90;fillColor=#ffe6cc;strokeColor=#d79b00;fontSize=24;fontFamily=Courier New;" vertex="1" parent="1">
          <mxGeometry x="3165" y="562.5" width="50" height="40" as="geometry" />
        </mxCell>
        <mxCell id="YUqy2N8KnSU7vUjBaJCi-20" value="" style="shape=stencil(tZTZbsMgEEW/hsdWLIqU14q2/0HsSY3igIvJ9vfBgJMYL00jW7IszR185uKBQYzXhagAUVwg9okoJRi7t4tPSSzqCjIbxKMwUmxKCJnaGr2Dk8xtZEhVgJG2ybIvhD/cmuZhPNNKOYjUqu5kHvIOJqRy3+JzgMXyl05UOf4eLJhoMqiIfj+PfV8tAyYL+e1iW/ez+50P3HVMlmrcbGDyOpZxp4wdbsY3Itv9GH1Q+aCZSjQXp5do03t9hLvL4fswvM+WUEr1QFi/QPg9iLwhkPgbbi6isIrxmSY1aDJF/mM0PUHPMRKrb39ZpYnVySK+0b1+eXWkyYxvtYGJ7m9lWYYJOlF1dIEv3avg1TDYvXAF);whiteSpace=wrap;html=1;rotation=90;fillColor=#ffe6cc;strokeColor=#d79b00;fontSize=24;fontFamily=Courier New;" vertex="1" parent="1">
          <mxGeometry x="3205" y="562.5" width="50" height="40" as="geometry" />
        </mxCell>
        <mxCell id="YUqy2N8KnSU7vUjBaJCi-21" value="" style="shape=stencil(tZTbjoMgEIafhtuGw3bvG3b7HlSnldSCi/T09ouATcVqD9HEmMw/8M1PhgExXheiAkRxgdgPopRg7P4uPiexqCvIbBBPwkixKSFkamv0Hs4yt5EhVQFG2ibLfhFeuTXNx3imlXIQqVXdydzlHUxI5fbiS4DF8tdOVDn+ASyYaDKoiK5fxy6W84DJTH672Nb95H6nA3cdk7kaNxmYfI5l3ClDl5vxjcj2O6OPKn9ophLN4PQSbfqgT/BkHB4fswWUUt0BbgP9DuLvKPIGQcKe7xYR42WMLzStkQrvOE0u0GuIxOnXE6eJz9ESvsu9Znl1oMOMb7WBkdZvZVmG53Ok6uACX7pXwavhVffCPw==);whiteSpace=wrap;html=1;fillStyle=auto;shadow=0;rotation=90;fillColor=#ffe6cc;strokeColor=#d79b00;fontSize=24;fontFamily=Courier New;" vertex="1" parent="1">
          <mxGeometry x="3085" y="632.5" width="50" height="40" as="geometry" />
        </mxCell>
        <mxCell id="YUqy2N8KnSU7vUjBaJCi-22" value="" style="shape=stencil(tZTbjoMgEIafhtuGw3bvG3b7HlSnldSCi/T09ouATcVqD9HEmMw/8M1PhgExXheiAkRxgdgPopRg7P4uPiexqCvIbBBPwkixKSFkamv0Hs4yt5EhVQFG2ibLfhFeuTXNx3imlXIQqVXdydzlHUxI5fbiS4DF8tdOVDn+ASyYaDKoiK5fxy6W84DJTH672Nb95H6nA3cdk7kaNxmYfI5l3ClDl5vxjcj2O6OPKn9ophLN4PQSbfqgT/BkHB4fswWUUt0BbgP9DuLvKPIGQcKe7xYR42WMLzStkQrvOE0u0GuIxOnXE6eJz9ESvsu9Znl1oMOMb7WBkdZvZVmG53Ok6uACX7pXwavhVffCPw==);whiteSpace=wrap;html=1;fillStyle=auto;shadow=0;rotation=90;fillColor=#ffe6cc;strokeColor=#d79b00;fontSize=24;fontFamily=Courier New;" vertex="1" parent="1">
          <mxGeometry x="3125" y="632.5" width="50" height="40" as="geometry" />
        </mxCell>
        <mxCell id="YUqy2N8KnSU7vUjBaJCi-23" value="" style="shape=stencil(tZTbjoMgEIafhtuGw3bvG3b7HlSnldSCi/T09ouATcVqD9HEmMw/8M1PhgExXheiAkRxgdgPopRg7P4uPiexqCvIbBBPwkixKSFkamv0Hs4yt5EhVQFG2ibLfhFeuTXNx3imlXIQqVXdydzlHUxI5fbiS4DF8tdOVDn+ASyYaDKoiK5fxy6W84DJTH672Nb95H6nA3cdk7kaNxmYfI5l3ClDl5vxjcj2O6OPKn9ophLN4PQSbfqgT/BkHB4fswWUUt0BbgP9DuLvKPIGQcKe7xYR42WMLzStkQrvOE0u0GuIxOnXE6eJz9ESvsu9Znl1oMOMb7WBkdZvZVmG53Ok6uACX7pXwavhVffCPw==);whiteSpace=wrap;html=1;fillStyle=auto;shadow=0;rotation=90;fillColor=#dae8fc;strokeColor=#6c8ebf;fontSize=24;fontFamily=Courier New;" vertex="1" parent="1">
          <mxGeometry x="3165" y="632.5" width="50" height="40" as="geometry" />
        </mxCell>
        <mxCell id="YUqy2N8KnSU7vUjBaJCi-24" value="" style="shape=stencil(tZTbjoMgEIafhtuGw3bvG3b7HlSnldSCi/T09ouATcVqD9HEmMw/8M1PhgExXheiAkRxgdgPopRg7P4uPiexqCvIbBBPwkixKSFkamv0Hs4yt5EhVQFG2ibLfhFeuTXNx3imlXIQqVXdydzlHUxI5fbiS4DF8tdOVDn+ASyYaDKoiK5fxy6W84DJTH672Nb95H6nA3cdk7kaNxmYfI5l3ClDl5vxjcj2O6OPKn9ophLN4PQSbfqgT/BkHB4fswWUUt0BbgP9DuLvKPIGQcKe7xYR42WMLzStkQrvOE0u0GuIxOnXE6eJz9ESvsu9Znl1oMOMb7WBkdZvZVmG53Ok6uACX7pXwavhVffCPw==);whiteSpace=wrap;html=1;fillStyle=auto;shadow=0;rotation=90;fillColor=#dae8fc;strokeColor=#6c8ebf;fontSize=24;fontFamily=Courier New;" vertex="1" parent="1">
          <mxGeometry x="3205" y="632.5" width="50" height="40" as="geometry" />
        </mxCell>
        <mxCell id="YUqy2N8KnSU7vUjBaJCi-25" value="" style="shape=stencil(tZTZbsMgEEW/hsdWLIqU14q2/0HsSY3igIvJ9vfBgJMYL00jW7IszR185uKBQYzXhagAUVwg9okoJRi7t4tPSSzqCjIbxKMwUmxKCJnaGr2Dk8xtZEhVgJG2ybIvhD/cmuZhPNNKOYjUqu5kHvIOJqRy3+JzgMXyl05UOf4eLJhoMqiIfj+PfV8tAyYL+e1iW/ez+50P3HVMlmrcbGDyOpZxp4wdbsY3Itv9GH1Q+aCZSjQXp5do03t9hLvL4fswvM+WUEr1QFi/QPg9iLwhkPgbbi6isIrxmSY1aDJF/mM0PUHPMRKrb39ZpYnVySK+0b1+eXWkyYxvtYGJ7m9lWYYJOlF1dIEv3avg1TDYvXAF);whiteSpace=wrap;html=1;rotation=90;fillColor=#ffe6cc;strokeColor=#d79b00;fontSize=24;fontFamily=Courier New;" vertex="1" parent="1">
          <mxGeometry x="3085" y="702.5" width="50" height="40" as="geometry" />
        </mxCell>
        <mxCell id="YUqy2N8KnSU7vUjBaJCi-26" value="" style="shape=stencil(tZTZbsMgEEW/hsdWLIqU14q2/0HsSY3igIvJ9vfBgJMYL00jW7IszR185uKBQYzXhagAUVwg9okoJRi7t4tPSSzqCjIbxKMwUmxKCJnaGr2Dk8xtZEhVgJG2ybIvhD/cmuZhPNNKOYjUqu5kHvIOJqRy3+JzgMXyl05UOf4eLJhoMqiIfj+PfV8tAyYL+e1iW/ez+50P3HVMlmrcbGDyOpZxp4wdbsY3Itv9GH1Q+aCZSjQXp5do03t9hLvL4fswvM+WUEr1QFi/QPg9iLwhkPgbbi6isIrxmSY1aDJF/mM0PUHPMRKrb39ZpYnVySK+0b1+eXWkyYxvtYGJ7m9lWYYJOlF1dIEv3avg1TDYvXAF);whiteSpace=wrap;html=1;rotation=90;fillColor=#ffe6cc;strokeColor=#d79b00;fontSize=24;fontFamily=Courier New;" vertex="1" parent="1">
          <mxGeometry x="3125" y="702.5" width="50" height="40" as="geometry" />
        </mxCell>
        <mxCell id="YUqy2N8KnSU7vUjBaJCi-27" value="" style="shape=stencil(tZTZbsMgEEW/hsdWLIqU14q2/0HsSY3igIvJ9vfBgJMYL00jW7IszR185uKBQYzXhagAUVwg9okoJRi7t4tPSSzqCjIbxKMwUmxKCJnaGr2Dk8xtZEhVgJG2ybIvhD/cmuZhPNNKOYjUqu5kHvIOJqRy3+JzgMXyl05UOf4eLJhoMqiIfj+PfV8tAyYL+e1iW/ez+50P3HVMlmrcbGDyOpZxp4wdbsY3Itv9GH1Q+aCZSjQXp5do03t9hLvL4fswvM+WUEr1QFi/QPg9iLwhkPgbbi6isIrxmSY1aDJF/mM0PUHPMRKrb39ZpYnVySK+0b1+eXWkyYxvtYGJ7m9lWYYJOlF1dIEv3avg1TDYvXAF);whiteSpace=wrap;html=1;rotation=90;fillColor=#dae8fc;strokeColor=#6c8ebf;fontSize=24;fontFamily=Courier New;" vertex="1" parent="1">
          <mxGeometry x="3165" y="702.5" width="50" height="40" as="geometry" />
        </mxCell>
        <mxCell id="YUqy2N8KnSU7vUjBaJCi-28" value="" style="shape=stencil(tZTZbsMgEEW/hsdWLIqU14q2/0HsSY3igIvJ9vfBgJMYL00jW7IszR185uKBQYzXhagAUVwg9okoJRi7t4tPSSzqCjIbxKMwUmxKCJnaGr2Dk8xtZEhVgJG2ybIvhD/cmuZhPNNKOYjUqu5kHvIOJqRy3+JzgMXyl05UOf4eLJhoMqiIfj+PfV8tAyYL+e1iW/ez+50P3HVMlmrcbGDyOpZxp4wdbsY3Itv9GH1Q+aCZSjQXp5do03t9hLvL4fswvM+WUEr1QFi/QPg9iLwhkPgbbi6isIrxmSY1aDJF/mM0PUHPMRKrb39ZpYnVySK+0b1+eXWkyYxvtYGJ7m9lWYYJOlF1dIEv3avg1TDYvXAF);whiteSpace=wrap;html=1;rotation=90;fillColor=#dae8fc;strokeColor=#6c8ebf;fontSize=24;fontFamily=Courier New;" vertex="1" parent="1">
          <mxGeometry x="3205" y="702.5" width="50" height="40" as="geometry" />
        </mxCell>
        <mxCell id="YUqy2N8KnSU7vUjBaJCi-29" value="" style="shape=stencil(tZTbjoMgEIafhtuGw3bvG3b7HlSnldSCi/T09ouATcVqD9HEmMw/8M1PhgExXheiAkRxgdgPopRg7P4uPiexqCvIbBBPwkixKSFkamv0Hs4yt5EhVQFG2ibLfhFeuTXNx3imlXIQqVXdydzlHUxI5fbiS4DF8tdOVDn+ASyYaDKoiK5fxy6W84DJTH672Nb95H6nA3cdk7kaNxmYfI5l3ClDl5vxjcj2O6OPKn9ophLN4PQSbfqgT/BkHB4fswWUUt0BbgP9DuLvKPIGQcKe7xYR42WMLzStkQrvOE0u0GuIxOnXE6eJz9ESvsu9Znl1oMOMb7WBkdZvZVmG53Ok6uACX7pXwavhVffCPw==);whiteSpace=wrap;html=1;fillStyle=auto;shadow=0;rotation=90;fillColor=#dae8fc;strokeColor=#6c8ebf;fontSize=24;fontFamily=Courier New;" vertex="1" parent="1">
          <mxGeometry x="3085" y="772.5" width="50" height="40" as="geometry" />
        </mxCell>
        <mxCell id="YUqy2N8KnSU7vUjBaJCi-30" value="" style="shape=stencil(tZTbjoMgEIafhtuGw3bvG3b7HlSnldSCi/T09ouATcVqD9HEmMw/8M1PhgExXheiAkRxgdgPopRg7P4uPiexqCvIbBBPwkixKSFkamv0Hs4yt5EhVQFG2ibLfhFeuTXNx3imlXIQqVXdydzlHUxI5fbiS4DF8tdOVDn+ASyYaDKoiK5fxy6W84DJTH672Nb95H6nA3cdk7kaNxmYfI5l3ClDl5vxjcj2O6OPKn9ophLN4PQSbfqgT/BkHB4fswWUUt0BbgP9DuLvKPIGQcKe7xYR42WMLzStkQrvOE0u0GuIxOnXE6eJz9ESvsu9Znl1oMOMb7WBkdZvZVmG53Ok6uACX7pXwavhVffCPw==);whiteSpace=wrap;html=1;fillStyle=auto;shadow=0;rotation=90;fillColor=#dae8fc;strokeColor=#6c8ebf;fontSize=24;fontFamily=Courier New;" vertex="1" parent="1">
          <mxGeometry x="3125" y="772.5" width="50" height="40" as="geometry" />
        </mxCell>
        <mxCell id="YUqy2N8KnSU7vUjBaJCi-31" value="" style="shape=stencil(tZTbjoMgEIafhtuGw3bvG3b7HlSnldSCi/T09ouATcVqD9HEmMw/8M1PhgExXheiAkRxgdgPopRg7P4uPiexqCvIbBBPwkixKSFkamv0Hs4yt5EhVQFG2ibLfhFeuTXNx3imlXIQqVXdydzlHUxI5fbiS4DF8tdOVDn+ASyYaDKoiK5fxy6W84DJTH672Nb95H6nA3cdk7kaNxmYfI5l3ClDl5vxjcj2O6OPKn9ophLN4PQSbfqgT/BkHB4fswWUUt0BbgP9DuLvKPIGQcKe7xYR42WMLzStkQrvOE0u0GuIxOnXE6eJz9ESvsu9Znl1oMOMb7WBkdZvZVmG53Ok6uACX7pXwavhVffCPw==);whiteSpace=wrap;html=1;fillStyle=auto;shadow=0;rotation=90;fillColor=#ffe6cc;strokeColor=#d79b00;fontSize=24;fontFamily=Courier New;" vertex="1" parent="1">
          <mxGeometry x="3165" y="772.5" width="50" height="40" as="geometry" />
        </mxCell>
        <mxCell id="YUqy2N8KnSU7vUjBaJCi-32" value="" style="shape=stencil(tZTbjoMgEIafhtuGw3bvG3b7HlSnldSCi/T09ouATcVqD9HEmMw/8M1PhgExXheiAkRxgdgPopRg7P4uPiexqCvIbBBPwkixKSFkamv0Hs4yt5EhVQFG2ibLfhFeuTXNx3imlXIQqVXdydzlHUxI5fbiS4DF8tdOVDn+ASyYaDKoiK5fxy6W84DJTH672Nb95H6nA3cdk7kaNxmYfI5l3ClDl5vxjcj2O6OPKn9ophLN4PQSbfqgT/BkHB4fswWUUt0BbgP9DuLvKPIGQcKe7xYR42WMLzStkQrvOE0u0GuIxOnXE6eJz9ESvsu9Znl1oMOMb7WBkdZvZVmG53Ok6uACX7pXwavhVffCPw==);whiteSpace=wrap;html=1;fillStyle=auto;shadow=0;rotation=90;fillColor=#ffe6cc;strokeColor=#d79b00;fontSize=24;fontFamily=Courier New;" vertex="1" parent="1">
          <mxGeometry x="3205" y="772.5" width="50" height="40" as="geometry" />
        </mxCell>
        <mxCell id="YUqy2N8KnSU7vUjBaJCi-33" value="" style="shape=stencil(tZTbjoMgEIafhtuGw3bvG3b7HlSnldSCi/T09ouATcVqD9HEmMw/8M1PhgExXheiAkRxgdgPopRg7P4uPiexqCvIbBBPwkixKSFkamv0Hs4yt5EhVQFG2ibLfhFeuTXNx3imlXIQqVXdydzlHUxI5fbiS4DF8tdOVDn+ASyYaDKoiK5fxy6W84DJTH672Nb95H6nA3cdk7kaNxmYfI5l3ClDl5vxjcj2O6OPKn9ophLN4PQSbfqgT/BkHB4fswWUUt0BbgP9DuLvKPIGQcKe7xYR42WMLzStkQrvOE0u0GuIxOnXE6eJz9ESvsu9Znl1oMOMb7WBkdZvZVmG53Ok6uACX7pXwavhVffCPw==);whiteSpace=wrap;html=1;fillStyle=auto;shadow=0;rotation=90;fillColor=#dae8fc;strokeColor=#6c8ebf;fontSize=24;fontFamily=Courier New;" vertex="1" parent="1">
          <mxGeometry x="3085" y="492.5" width="50" height="40" as="geometry" />
        </mxCell>
        <mxCell id="YUqy2N8KnSU7vUjBaJCi-34" value="" style="shape=stencil(tZTbjoMgEIafhtuGw3bvG3b7HlSnldSCi/T09ouATcVqD9HEmMw/8M1PhgExXheiAkRxgdgPopRg7P4uPiexqCvIbBBPwkixKSFkamv0Hs4yt5EhVQFG2ibLfhFeuTXNx3imlXIQqVXdydzlHUxI5fbiS4DF8tdOVDn+ASyYaDKoiK5fxy6W84DJTH672Nb95H6nA3cdk7kaNxmYfI5l3ClDl5vxjcj2O6OPKn9ophLN4PQSbfqgT/BkHB4fswWUUt0BbgP9DuLvKPIGQcKe7xYR42WMLzStkQrvOE0u0GuIxOnXE6eJz9ESvsu9Znl1oMOMb7WBkdZvZVmG53Ok6uACX7pXwavhVffCPw==);whiteSpace=wrap;html=1;fillStyle=auto;shadow=0;rotation=90;fillColor=#dae8fc;strokeColor=#6c8ebf;fontSize=24;fontFamily=Courier New;" vertex="1" parent="1">
          <mxGeometry x="3125" y="492.5" width="50" height="40" as="geometry" />
        </mxCell>
        <mxCell id="YUqy2N8KnSU7vUjBaJCi-35" value="" style="shape=stencil(tZTbjoMgEIafhtuGw3bvG3b7HlSnldSCi/T09ouATcVqD9HEmMw/8M1PhgExXheiAkRxgdgPopRg7P4uPiexqCvIbBBPwkixKSFkamv0Hs4yt5EhVQFG2ibLfhFeuTXNx3imlXIQqVXdydzlHUxI5fbiS4DF8tdOVDn+ASyYaDKoiK5fxy6W84DJTH672Nb95H6nA3cdk7kaNxmYfI5l3ClDl5vxjcj2O6OPKn9ophLN4PQSbfqgT/BkHB4fswWUUt0BbgP9DuLvKPIGQcKe7xYR42WMLzStkQrvOE0u0GuIxOnXE6eJz9ESvsu9Znl1oMOMb7WBkdZvZVmG53Ok6uACX7pXwavhVffCPw==);whiteSpace=wrap;html=1;fillStyle=auto;shadow=0;rotation=90;fillColor=#ffe6cc;strokeColor=#d79b00;fontSize=24;fontFamily=Courier New;" vertex="1" parent="1">
          <mxGeometry x="3165" y="492.5" width="50" height="40" as="geometry" />
        </mxCell>
        <mxCell id="YUqy2N8KnSU7vUjBaJCi-36" value="" style="shape=stencil(tZTbjoMgEIafhtuGw3bvG3b7HlSnldSCi/T09ouATcVqD9HEmMw/8M1PhgExXheiAkRxgdgPopRg7P4uPiexqCvIbBBPwkixKSFkamv0Hs4yt5EhVQFG2ibLfhFeuTXNx3imlXIQqVXdydzlHUxI5fbiS4DF8tdOVDn+ASyYaDKoiK5fxy6W84DJTH672Nb95H6nA3cdk7kaNxmYfI5l3ClDl5vxjcj2O6OPKn9ophLN4PQSbfqgT/BkHB4fswWUUt0BbgP9DuLvKPIGQcKe7xYR42WMLzStkQrvOE0u0GuIxOnXE6eJz9ESvsu9Znl1oMOMb7WBkdZvZVmG53Ok6uACX7pXwavhVffCPw==);whiteSpace=wrap;html=1;fillStyle=auto;shadow=0;rotation=90;fillColor=#ffe6cc;strokeColor=#d79b00;fontSize=24;fontFamily=Courier New;" vertex="1" parent="1">
          <mxGeometry x="3205" y="492.5" width="50" height="40" as="geometry" />
        </mxCell>
        <mxCell id="YUqy2N8KnSU7vUjBaJCi-37" value="" style="shape=stencil(tZTZbsMgEEW/hsdWLIqU14q2/0HsSY3igIvJ9vfBgJMYL00jW7IszR185uKBQYzXhagAUVwg9okoJRi7t4tPSSzqCjIbxKMwUmxKCJnaGr2Dk8xtZEhVgJG2ybIvhD/cmuZhPNNKOYjUqu5kHvIOJqRy3+JzgMXyl05UOf4eLJhoMqiIfj+PfV8tAyYL+e1iW/ez+50P3HVMlmrcbGDyOpZxp4wdbsY3Itv9GH1Q+aCZSjQXp5do03t9hLvL4fswvM+WUEr1QFi/QPg9iLwhkPgbbi6isIrxmSY1aDJF/mM0PUHPMRKrb39ZpYnVySK+0b1+eXWkyYxvtYGJ7m9lWYYJOlF1dIEv3avg1TDYvXAF);whiteSpace=wrap;html=1;rotation=90;fillColor=#dae8fc;strokeColor=#6c8ebf;fontSize=24;fontFamily=Courier New;" vertex="1" parent="1">
          <mxGeometry x="3085" y="842.5" width="50" height="40" as="geometry" />
        </mxCell>
        <mxCell id="YUqy2N8KnSU7vUjBaJCi-38" value="" style="shape=stencil(tZTZbsMgEEW/hsdWLIqU14q2/0HsSY3igIvJ9vfBgJMYL00jW7IszR185uKBQYzXhagAUVwg9okoJRi7t4tPSSzqCjIbxKMwUmxKCJnaGr2Dk8xtZEhVgJG2ybIvhD/cmuZhPNNKOYjUqu5kHvIOJqRy3+JzgMXyl05UOf4eLJhoMqiIfj+PfV8tAyYL+e1iW/ez+50P3HVMlmrcbGDyOpZxp4wdbsY3Itv9GH1Q+aCZSjQXp5do03t9hLvL4fswvM+WUEr1QFi/QPg9iLwhkPgbbi6isIrxmSY1aDJF/mM0PUHPMRKrb39ZpYnVySK+0b1+eXWkyYxvtYGJ7m9lWYYJOlF1dIEv3avg1TDYvXAF);whiteSpace=wrap;html=1;rotation=90;fillColor=#dae8fc;strokeColor=#6c8ebf;fontSize=24;fontFamily=Courier New;" vertex="1" parent="1">
          <mxGeometry x="3125" y="842.5" width="50" height="40" as="geometry" />
        </mxCell>
        <mxCell id="YUqy2N8KnSU7vUjBaJCi-39" value="" style="shape=stencil(tZTZbsMgEEW/hsdWLIqU14q2/0HsSY3igIvJ9vfBgJMYL00jW7IszR185uKBQYzXhagAUVwg9okoJRi7t4tPSSzqCjIbxKMwUmxKCJnaGr2Dk8xtZEhVgJG2ybIvhD/cmuZhPNNKOYjUqu5kHvIOJqRy3+JzgMXyl05UOf4eLJhoMqiIfj+PfV8tAyYL+e1iW/ez+50P3HVMlmrcbGDyOpZxp4wdbsY3Itv9GH1Q+aCZSjQXp5do03t9hLvL4fswvM+WUEr1QFi/QPg9iLwhkPgbbi6isIrxmSY1aDJF/mM0PUHPMRKrb39ZpYnVySK+0b1+eXWkyYxvtYGJ7m9lWYYJOlF1dIEv3avg1TDYvXAF);whiteSpace=wrap;html=1;rotation=90;fillColor=#ffe6cc;strokeColor=#d79b00;fontSize=24;fontFamily=Courier New;" vertex="1" parent="1">
          <mxGeometry x="3165" y="842.5" width="50" height="40" as="geometry" />
        </mxCell>
        <mxCell id="YUqy2N8KnSU7vUjBaJCi-40" value="" style="shape=stencil(tZTZbsMgEEW/hsdWLIqU14q2/0HsSY3igIvJ9vfBgJMYL00jW7IszR185uKBQYzXhagAUVwg9okoJRi7t4tPSSzqCjIbxKMwUmxKCJnaGr2Dk8xtZEhVgJG2ybIvhD/cmuZhPNNKOYjUqu5kHvIOJqRy3+JzgMXyl05UOf4eLJhoMqiIfj+PfV8tAyYL+e1iW/ez+50P3HVMlmrcbGDyOpZxp4wdbsY3Itv9GH1Q+aCZSjQXp5do03t9hLvL4fswvM+WUEr1QFi/QPg9iLwhkPgbbi6isIrxmSY1aDJF/mM0PUHPMRKrb39ZpYnVySK+0b1+eXWkyYxvtYGJ7m9lWYYJOlF1dIEv3avg1TDYvXAF);whiteSpace=wrap;html=1;rotation=90;fillColor=#ffe6cc;strokeColor=#d79b00;fontSize=24;fontFamily=Courier New;" vertex="1" parent="1">
          <mxGeometry x="3205" y="842.5" width="50" height="40" as="geometry" />
        </mxCell>
        <mxCell id="YUqy2N8KnSU7vUjBaJCi-41" value="" style="rounded=0;whiteSpace=wrap;html=1;fillColor=none;dashed=1;strokeColor=#b85450;strokeWidth=2;" vertex="1" parent="1">
          <mxGeometry x="2800" y="662" width="190" height="51" as="geometry" />
        </mxCell>
        <mxCell id="YUqy2N8KnSU7vUjBaJCi-42" value="" style="rounded=0;whiteSpace=wrap;html=1;fillColor=none;dashed=1;strokeColor=#b85450;strokeWidth=2;" vertex="1" parent="1">
          <mxGeometry x="2800" y="802.5" width="190" height="50" as="geometry" />
        </mxCell>
        <mxCell id="YUqy2N8KnSU7vUjBaJCi-43" value="" style="endArrow=classic;html=1;rounded=0;fillColor=#f8cecc;strokeColor=#b85450;" edge="1" parent="1">
          <mxGeometry width="50" height="50" relative="1" as="geometry">
            <mxPoint x="2890.63" y="642" as="sourcePoint" />
            <mxPoint x="2890.63" y="662" as="targetPoint" />
          </mxGeometry>
        </mxCell>
        <mxCell id="YUqy2N8KnSU7vUjBaJCi-44" value="" style="endArrow=classic;html=1;rounded=0;fillColor=#f8cecc;strokeColor=#b85450;" edge="1" parent="1">
          <mxGeometry width="50" height="50" relative="1" as="geometry">
            <mxPoint x="2890" y="782.5" as="sourcePoint" />
            <mxPoint x="2890" y="802.5" as="targetPoint" />
          </mxGeometry>
        </mxCell>
        <mxCell id="YUqy2N8KnSU7vUjBaJCi-45" value="" style="endArrow=classic;html=1;rounded=0;fillColor=#f8cecc;strokeColor=#b85450;" edge="1" parent="1">
          <mxGeometry width="50" height="50" relative="1" as="geometry">
            <mxPoint x="2890.63" y="733" as="sourcePoint" />
            <mxPoint x="2890.63" y="713" as="targetPoint" />
          </mxGeometry>
        </mxCell>
        <mxCell id="YUqy2N8KnSU7vUjBaJCi-46" value="" style="endArrow=classic;html=1;rounded=0;fillColor=#d5e8d4;strokeColor=#82b366;" edge="1" parent="1">
          <mxGeometry width="50" height="50" relative="1" as="geometry">
            <mxPoint x="2990" y="547.5" as="sourcePoint" />
            <mxPoint x="3080" y="507.5" as="targetPoint" />
          </mxGeometry>
        </mxCell>
        <mxCell id="YUqy2N8KnSU7vUjBaJCi-47" value="" style="endArrow=classic;html=1;rounded=0;fillColor=#d5e8d4;strokeColor=#82b366;entryX=0;entryY=0.75;entryDx=0;entryDy=0;exitX=1;exitY=0.5;exitDx=0;exitDy=0;" edge="1" parent="1" source="YUqy2N8KnSU7vUjBaJCi-42" target="YUqy2N8KnSU7vUjBaJCi-77">
          <mxGeometry width="50" height="50" relative="1" as="geometry">
            <mxPoint x="2990" y="867.5" as="sourcePoint" />
            <mxPoint x="3080" y="827.5" as="targetPoint" />
          </mxGeometry>
        </mxCell>
        <mxCell id="YUqy2N8KnSU7vUjBaJCi-48" value="" style="endArrow=classic;html=1;rounded=0;fillColor=#d5e8d4;strokeColor=#82b366;exitX=1;exitY=0.5;exitDx=0;exitDy=0;" edge="1" parent="1" source="YUqy2N8KnSU7vUjBaJCi-114">
          <mxGeometry width="50" height="50" relative="1" as="geometry">
            <mxPoint x="2990" y="627.5" as="sourcePoint" />
            <mxPoint x="3081" y="655.5" as="targetPoint" />
          </mxGeometry>
        </mxCell>
        <mxCell id="YUqy2N8KnSU7vUjBaJCi-49" value="" style="endArrow=classic;html=1;rounded=0;fillColor=#d5e8d4;strokeColor=#82b366;entryX=0;entryY=0.25;entryDx=0;entryDy=0;" edge="1" parent="1" target="YUqy2N8KnSU7vUjBaJCi-77">
          <mxGeometry width="50" height="50" relative="1" as="geometry">
            <mxPoint x="2990" y="547.5" as="sourcePoint" />
            <mxPoint x="3080" y="587.5" as="targetPoint" />
          </mxGeometry>
        </mxCell>
        <mxCell id="YUqy2N8KnSU7vUjBaJCi-50" value="" style="endArrow=classic;html=1;rounded=0;fillColor=#d5e8d4;strokeColor=#82b366;exitX=1;exitY=0.5;exitDx=0;exitDy=0;entryX=-0.003;entryY=0.927;entryDx=0;entryDy=0;entryPerimeter=0;" edge="1" parent="1" source="YUqy2N8KnSU7vUjBaJCi-42" target="YUqy2N8KnSU7vUjBaJCi-77">
          <mxGeometry width="50" height="50" relative="1" as="geometry">
            <mxPoint x="2990" y="867.5" as="sourcePoint" />
            <mxPoint x="3080" y="907.5" as="targetPoint" />
          </mxGeometry>
        </mxCell>
        <mxCell id="YUqy2N8KnSU7vUjBaJCi-51" value="" style="endArrow=classic;html=1;rounded=0;fillColor=#d5e8d4;strokeColor=#82b366;exitX=1;exitY=0.5;exitDx=0;exitDy=0;entryX=0;entryY=0.75;entryDx=0;entryDy=0;" edge="1" parent="1" source="YUqy2N8KnSU7vUjBaJCi-41" target="YUqy2N8KnSU7vUjBaJCi-77">
          <mxGeometry width="50" height="50" relative="1" as="geometry">
            <mxPoint x="2990" y="707.5" as="sourcePoint" />
            <mxPoint x="3080" y="827.5" as="targetPoint" />
          </mxGeometry>
        </mxCell>
        <mxCell id="YUqy2N8KnSU7vUjBaJCi-52" value="" style="endArrow=classic;html=1;rounded=0;fillColor=#d5e8d4;strokeColor=#82b366;exitX=1;exitY=0.5;exitDx=0;exitDy=0;entryX=0;entryY=0.25;entryDx=0;entryDy=0;" edge="1" parent="1" source="YUqy2N8KnSU7vUjBaJCi-41" target="YUqy2N8KnSU7vUjBaJCi-77">
          <mxGeometry width="50" height="50" relative="1" as="geometry">
            <mxPoint x="2990" y="707.5" as="sourcePoint" />
            <mxPoint x="3080" y="587.5" as="targetPoint" />
          </mxGeometry>
        </mxCell>
        <mxCell id="YUqy2N8KnSU7vUjBaJCi-53" value="" style="endArrow=classic;html=1;rounded=0;exitX=1;exitY=0.5;exitDx=0;exitDy=0;fillColor=#d5e8d4;strokeColor=#82b366;" edge="1" parent="1" source="YUqy2N8KnSU7vUjBaJCi-41">
          <mxGeometry width="50" height="50" relative="1" as="geometry">
            <mxPoint x="2990" y="577.5" as="sourcePoint" />
            <mxPoint x="3080" y="507.5" as="targetPoint" />
          </mxGeometry>
        </mxCell>
        <mxCell id="YUqy2N8KnSU7vUjBaJCi-54" value="" style="endArrow=classic;html=1;rounded=0;exitX=1;exitY=0.5;exitDx=0;exitDy=0;fillColor=#d5e8d4;strokeColor=#82b366;entryX=0.003;entryY=0.927;entryDx=0;entryDy=0;entryPerimeter=0;" edge="1" parent="1" source="YUqy2N8KnSU7vUjBaJCi-41" target="YUqy2N8KnSU7vUjBaJCi-77">
          <mxGeometry width="50" height="50" relative="1" as="geometry">
            <mxPoint x="2990" y="707.5" as="sourcePoint" />
            <mxPoint x="3080" y="907.5" as="targetPoint" />
          </mxGeometry>
        </mxCell>
        <mxCell id="YUqy2N8KnSU7vUjBaJCi-55" value="" style="endArrow=classic;html=1;rounded=0;endFill=1;fillColor=#e1d5e7;strokeColor=#9673a6;" edge="1" parent="1">
          <mxGeometry width="50" height="50" relative="1" as="geometry">
            <mxPoint x="3260" y="507" as="sourcePoint" />
            <mxPoint x="3350" y="557.5" as="targetPoint" />
          </mxGeometry>
        </mxCell>
        <mxCell id="YUqy2N8KnSU7vUjBaJCi-56" value="" style="endArrow=classic;html=1;rounded=0;endFill=1;fillColor=#e1d5e7;strokeColor=#9673a6;exitX=1;exitY=0.25;exitDx=0;exitDy=0;" edge="1" parent="1" source="YUqy2N8KnSU7vUjBaJCi-77">
          <mxGeometry width="50" height="50" relative="1" as="geometry">
            <mxPoint x="3260" y="587.5" as="sourcePoint" />
            <mxPoint x="3350" y="557.5" as="targetPoint" />
          </mxGeometry>
        </mxCell>
        <mxCell id="YUqy2N8KnSU7vUjBaJCi-57" value="" style="endArrow=classic;html=1;rounded=0;endFill=1;fillColor=#e1d5e7;strokeColor=#9673a6;exitX=0.997;exitY=0.417;exitDx=0;exitDy=0;exitPerimeter=0;" edge="1" parent="1" source="YUqy2N8KnSU7vUjBaJCi-77">
          <mxGeometry width="50" height="50" relative="1" as="geometry">
            <mxPoint x="3260" y="667.5" as="sourcePoint" />
            <mxPoint x="3350" y="557.5" as="targetPoint" />
          </mxGeometry>
        </mxCell>
        <mxCell id="YUqy2N8KnSU7vUjBaJCi-58" value="" style="endArrow=classic;html=1;rounded=0;endFill=1;fillColor=#e1d5e7;strokeColor=#9673a6;exitX=0.997;exitY=0.579;exitDx=0;exitDy=0;exitPerimeter=0;" edge="1" parent="1" source="YUqy2N8KnSU7vUjBaJCi-77">
          <mxGeometry width="50" height="50" relative="1" as="geometry">
            <mxPoint x="3260" y="717.5" as="sourcePoint" />
            <mxPoint x="3350" y="557.5" as="targetPoint" />
          </mxGeometry>
        </mxCell>
        <mxCell id="YUqy2N8KnSU7vUjBaJCi-59" value="" style="endArrow=classic;html=1;rounded=0;endFill=1;fillColor=#e1d5e7;strokeColor=#9673a6;exitX=1;exitY=0.75;exitDx=0;exitDy=0;" edge="1" parent="1" source="YUqy2N8KnSU7vUjBaJCi-77">
          <mxGeometry width="50" height="50" relative="1" as="geometry">
            <mxPoint x="3260" y="827.5" as="sourcePoint" />
            <mxPoint x="3350" y="557.5" as="targetPoint" />
          </mxGeometry>
        </mxCell>
        <mxCell id="YUqy2N8KnSU7vUjBaJCi-60" value="&lt;font style=&quot;font-size: 24px;&quot; face=&quot;Courier New&quot;&gt;A&lt;/font&gt;" style="text;html=1;strokeColor=none;fillColor=none;align=center;verticalAlign=middle;whiteSpace=wrap;rounded=0;" vertex="1" parent="1">
          <mxGeometry x="2812.5" y="527.5" width="42.5" height="40" as="geometry" />
        </mxCell>
        <mxCell id="YUqy2N8KnSU7vUjBaJCi-61" value="&lt;font style=&quot;font-size: 24px;&quot; face=&quot;Courier New&quot;&gt;B&lt;/font&gt;" style="text;html=1;strokeColor=none;fillColor=none;align=center;verticalAlign=middle;whiteSpace=wrap;rounded=0;" vertex="1" parent="1">
          <mxGeometry x="2852.5" y="527.5" width="42.5" height="40" as="geometry" />
        </mxCell>
        <mxCell id="YUqy2N8KnSU7vUjBaJCi-62" value="&lt;font style=&quot;font-size: 24px;&quot; face=&quot;Courier New&quot;&gt;C&lt;/font&gt;" style="text;html=1;strokeColor=none;fillColor=none;align=center;verticalAlign=middle;whiteSpace=wrap;rounded=0;" vertex="1" parent="1">
          <mxGeometry x="2895" y="527.5" width="42.5" height="40" as="geometry" />
        </mxCell>
        <mxCell id="YUqy2N8KnSU7vUjBaJCi-63" value="&lt;font style=&quot;font-size: 24px;&quot; face=&quot;Courier New&quot;&gt;D&lt;/font&gt;" style="text;html=1;strokeColor=none;fillColor=none;align=center;verticalAlign=middle;whiteSpace=wrap;rounded=0;" vertex="1" parent="1">
          <mxGeometry x="2935" y="527.5" width="42.5" height="40" as="geometry" />
        </mxCell>
        <mxCell id="YUqy2N8KnSU7vUjBaJCi-64" value="&lt;font style=&quot;font-size: 24px;&quot; face=&quot;Courier New&quot;&gt;E&lt;/font&gt;" style="text;html=1;strokeColor=none;fillColor=none;align=center;verticalAlign=middle;whiteSpace=wrap;rounded=0;" vertex="1" parent="1">
          <mxGeometry x="2810.63" y="667.5" width="42.5" height="40" as="geometry" />
        </mxCell>
        <mxCell id="YUqy2N8KnSU7vUjBaJCi-65" value="&lt;font style=&quot;font-size: 24px;&quot; face=&quot;Courier New&quot;&gt;F&lt;/font&gt;" style="text;html=1;strokeColor=none;fillColor=none;align=center;verticalAlign=middle;whiteSpace=wrap;rounded=0;" vertex="1" parent="1">
          <mxGeometry x="2852.88" y="667.5" width="42.5" height="40" as="geometry" />
        </mxCell>
        <mxCell id="YUqy2N8KnSU7vUjBaJCi-66" value="&lt;font style=&quot;font-size: 24px;&quot; face=&quot;Courier New&quot;&gt;G&lt;/font&gt;" style="text;html=1;strokeColor=none;fillColor=none;align=center;verticalAlign=middle;whiteSpace=wrap;rounded=0;" vertex="1" parent="1">
          <mxGeometry x="2892.88" y="667.5" width="42.5" height="40" as="geometry" />
        </mxCell>
        <mxCell id="YUqy2N8KnSU7vUjBaJCi-67" value="&lt;font style=&quot;font-size: 24px;&quot; face=&quot;Courier New&quot;&gt;H&lt;/font&gt;" style="text;html=1;strokeColor=none;fillColor=none;align=center;verticalAlign=middle;whiteSpace=wrap;rounded=0;" vertex="1" parent="1">
          <mxGeometry x="2932.88" y="667.5" width="42.5" height="40" as="geometry" />
        </mxCell>
        <mxCell id="YUqy2N8KnSU7vUjBaJCi-68" value="&lt;font style=&quot;font-size: 24px;&quot; face=&quot;Courier New&quot;&gt;G&lt;/font&gt;" style="text;html=1;strokeColor=none;fillColor=none;align=center;verticalAlign=middle;whiteSpace=wrap;rounded=0;" vertex="1" parent="1">
          <mxGeometry x="2812.5" y="737.5" width="42.5" height="40" as="geometry" />
        </mxCell>
        <mxCell id="YUqy2N8KnSU7vUjBaJCi-69" value="&lt;font style=&quot;font-size: 24px;&quot; face=&quot;Courier New&quot;&gt;H&lt;/font&gt;" style="text;html=1;strokeColor=none;fillColor=none;align=center;verticalAlign=middle;whiteSpace=wrap;rounded=0;" vertex="1" parent="1">
          <mxGeometry x="2852.5" y="737.5" width="42.5" height="40" as="geometry" />
        </mxCell>
        <mxCell id="YUqy2N8KnSU7vUjBaJCi-70" value="&lt;font style=&quot;font-size: 24px;&quot; face=&quot;Courier New&quot;&gt;I&lt;/font&gt;" style="text;html=1;strokeColor=none;fillColor=none;align=center;verticalAlign=middle;whiteSpace=wrap;rounded=0;" vertex="1" parent="1">
          <mxGeometry x="2892.5" y="737.5" width="42.5" height="40" as="geometry" />
        </mxCell>
        <mxCell id="YUqy2N8KnSU7vUjBaJCi-71" value="&lt;font style=&quot;font-size: 24px;&quot; face=&quot;Courier New&quot;&gt;J&lt;/font&gt;" style="text;html=1;strokeColor=none;fillColor=none;align=center;verticalAlign=middle;whiteSpace=wrap;rounded=0;" vertex="1" parent="1">
          <mxGeometry x="2933.75" y="737.5" width="42.5" height="40" as="geometry" />
        </mxCell>
        <mxCell id="YUqy2N8KnSU7vUjBaJCi-72" value="&lt;font style=&quot;font-size: 24px;&quot; face=&quot;Courier New&quot;&gt;I&lt;/font&gt;" style="text;html=1;strokeColor=none;fillColor=none;align=center;verticalAlign=middle;whiteSpace=wrap;rounded=0;" vertex="1" parent="1">
          <mxGeometry x="2815.01" y="807.5" width="42.5" height="40" as="geometry" />
        </mxCell>
        <mxCell id="YUqy2N8KnSU7vUjBaJCi-73" value="&lt;font style=&quot;font-size: 24px;&quot; face=&quot;Courier New&quot;&gt;J&lt;/font&gt;" style="text;html=1;strokeColor=none;fillColor=none;align=center;verticalAlign=middle;whiteSpace=wrap;rounded=0;" vertex="1" parent="1">
          <mxGeometry x="2856.26" y="807.5" width="42.5" height="40" as="geometry" />
        </mxCell>
        <mxCell id="YUqy2N8KnSU7vUjBaJCi-74" value="&lt;font style=&quot;font-size: 24px;&quot; face=&quot;Courier New&quot;&gt;K&lt;/font&gt;" style="text;html=1;strokeColor=none;fillColor=none;align=center;verticalAlign=middle;whiteSpace=wrap;rounded=0;" vertex="1" parent="1">
          <mxGeometry x="2896.26" y="807.5" width="42.5" height="40" as="geometry" />
        </mxCell>
        <mxCell id="YUqy2N8KnSU7vUjBaJCi-75" value="&lt;font style=&quot;font-size: 24px;&quot; face=&quot;Courier New&quot;&gt;L&lt;/font&gt;" style="text;html=1;strokeColor=none;fillColor=none;align=center;verticalAlign=middle;whiteSpace=wrap;rounded=0;" vertex="1" parent="1">
          <mxGeometry x="2936.26" y="807.5" width="42.5" height="40" as="geometry" />
        </mxCell>
        <mxCell id="YUqy2N8KnSU7vUjBaJCi-76" value="" style="rounded=0;whiteSpace=wrap;html=1;fillColor=none;dashed=1;strokeColor=#b85450;strokeWidth=2;" vertex="1" parent="1">
          <mxGeometry x="2800" y="522.5" width="190" height="50" as="geometry" />
        </mxCell>
        <mxCell id="YUqy2N8KnSU7vUjBaJCi-77" value="" style="rounded=0;whiteSpace=wrap;html=1;fillColor=none;dashed=1;strokeColor=#82b366;strokeWidth=2;" vertex="1" parent="1">
          <mxGeometry x="3080" y="477.5" width="181" height="420" as="geometry" />
        </mxCell>
        <mxCell id="YUqy2N8KnSU7vUjBaJCi-78" value="" style="rounded=0;whiteSpace=wrap;html=1;fillColor=none;strokeColor=#6c8ebf;strokeWidth=2;" vertex="1" parent="1">
          <mxGeometry x="2800" y="733" width="190" height="49" as="geometry" />
        </mxCell>
        <mxCell id="YUqy2N8KnSU7vUjBaJCi-79" value="" style="endArrow=classic;html=1;rounded=0;fillColor=#d5e8d4;strokeColor=#82b366;entryX=-0.009;entryY=0.591;entryDx=0;entryDy=0;entryPerimeter=0;exitX=1;exitY=0.5;exitDx=0;exitDy=0;" edge="1" parent="1" source="YUqy2N8KnSU7vUjBaJCi-78" target="YUqy2N8KnSU7vUjBaJCi-77">
          <mxGeometry width="50" height="50" relative="1" as="geometry">
            <mxPoint x="2990" y="787.5" as="sourcePoint" />
            <mxPoint x="3080" y="747.5" as="targetPoint" />
          </mxGeometry>
        </mxCell>
        <mxCell id="YUqy2N8KnSU7vUjBaJCi-80" value="" style="endArrow=classic;html=1;rounded=0;fillColor=#d5e8d4;strokeColor=#82b366;exitX=1;exitY=0.5;exitDx=0;exitDy=0;entryX=0;entryY=0.427;entryDx=0;entryDy=0;entryPerimeter=0;" edge="1" parent="1" source="YUqy2N8KnSU7vUjBaJCi-78" target="YUqy2N8KnSU7vUjBaJCi-77">
          <mxGeometry width="50" height="50" relative="1" as="geometry">
            <mxPoint x="2990" y="787.5" as="sourcePoint" />
            <mxPoint x="3080" y="657.5" as="targetPoint" />
          </mxGeometry>
        </mxCell>
        <mxCell id="YUqy2N8KnSU7vUjBaJCi-81" value="&lt;font style=&quot;font-size: 24px;&quot; face=&quot;Courier New&quot;&gt;A&lt;/font&gt;" style="text;html=1;strokeColor=none;fillColor=none;align=center;verticalAlign=middle;whiteSpace=wrap;rounded=0;" vertex="1" parent="1">
          <mxGeometry x="3088.75" y="492.5" width="42.5" height="40" as="geometry" />
        </mxCell>
        <mxCell id="YUqy2N8KnSU7vUjBaJCi-82" value="&lt;font style=&quot;font-size: 24px;&quot; face=&quot;Courier New&quot;&gt;B&lt;/font&gt;" style="text;html=1;strokeColor=none;fillColor=none;align=center;verticalAlign=middle;whiteSpace=wrap;rounded=0;" vertex="1" parent="1">
          <mxGeometry x="3089" y="562.5" width="42.5" height="40" as="geometry" />
        </mxCell>
        <mxCell id="YUqy2N8KnSU7vUjBaJCi-83" value="&lt;font style=&quot;font-size: 24px;&quot; face=&quot;Courier New&quot;&gt;C&lt;/font&gt;" style="text;html=1;strokeColor=none;fillColor=none;align=center;verticalAlign=middle;whiteSpace=wrap;rounded=0;" vertex="1" parent="1">
          <mxGeometry x="3088.75" y="632.5" width="42.5" height="40" as="geometry" />
        </mxCell>
        <mxCell id="YUqy2N8KnSU7vUjBaJCi-84" value="&lt;font style=&quot;font-size: 24px;&quot; face=&quot;Courier New&quot;&gt;D&lt;/font&gt;" style="text;html=1;strokeColor=none;fillColor=none;align=center;verticalAlign=middle;whiteSpace=wrap;rounded=0;" vertex="1" parent="1">
          <mxGeometry x="3090.5" y="702.5" width="39.5" height="40" as="geometry" />
        </mxCell>
        <mxCell id="YUqy2N8KnSU7vUjBaJCi-85" value="&lt;font style=&quot;font-size: 24px;&quot; face=&quot;Courier New&quot;&gt;E&lt;/font&gt;" style="text;html=1;strokeColor=none;fillColor=none;align=center;verticalAlign=middle;whiteSpace=wrap;rounded=0;" vertex="1" parent="1">
          <mxGeometry x="3089" y="772.5" width="42.5" height="40" as="geometry" />
        </mxCell>
        <mxCell id="YUqy2N8KnSU7vUjBaJCi-86" value="&lt;font style=&quot;font-size: 24px;&quot; face=&quot;Courier New&quot;&gt;F&lt;/font&gt;" style="text;html=1;strokeColor=none;fillColor=none;align=center;verticalAlign=middle;whiteSpace=wrap;rounded=0;" vertex="1" parent="1">
          <mxGeometry x="3088.75" y="842.5" width="42.5" height="40" as="geometry" />
        </mxCell>
        <mxCell id="YUqy2N8KnSU7vUjBaJCi-87" value="&lt;font style=&quot;font-size: 24px;&quot; face=&quot;Courier New&quot;&gt;E&lt;/font&gt;" style="text;html=1;strokeColor=none;fillColor=none;align=center;verticalAlign=middle;whiteSpace=wrap;rounded=0;" vertex="1" parent="1">
          <mxGeometry x="3128.75" y="492.5" width="42.5" height="40" as="geometry" />
        </mxCell>
        <mxCell id="YUqy2N8KnSU7vUjBaJCi-88" value="&lt;font style=&quot;font-size: 24px;&quot; face=&quot;Courier New&quot;&gt;C&lt;/font&gt;" style="text;html=1;strokeColor=none;fillColor=none;align=center;verticalAlign=middle;whiteSpace=wrap;rounded=0;" vertex="1" parent="1">
          <mxGeometry x="3168.75" y="492.5" width="42.5" height="40" as="geometry" />
        </mxCell>
        <mxCell id="YUqy2N8KnSU7vUjBaJCi-89" value="&lt;font style=&quot;font-size: 24px;&quot; face=&quot;Courier New&quot;&gt;G&lt;/font&gt;" style="text;html=1;strokeColor=none;fillColor=none;align=center;verticalAlign=middle;whiteSpace=wrap;rounded=0;" vertex="1" parent="1">
          <mxGeometry x="3208.75" y="492.5" width="42.5" height="40" as="geometry" />
        </mxCell>
        <mxCell id="YUqy2N8KnSU7vUjBaJCi-90" value="&lt;font style=&quot;font-size: 24px;&quot; face=&quot;Courier New&quot;&gt;F&lt;/font&gt;" style="text;html=1;strokeColor=none;fillColor=none;align=center;verticalAlign=middle;whiteSpace=wrap;rounded=0;" vertex="1" parent="1">
          <mxGeometry x="3128.75" y="562.5" width="42.5" height="40" as="geometry" />
        </mxCell>
        <mxCell id="YUqy2N8KnSU7vUjBaJCi-91" value="&lt;font style=&quot;font-size: 24px;&quot; face=&quot;Courier New&quot;&gt;D&lt;/font&gt;" style="text;html=1;strokeColor=none;fillColor=none;align=center;verticalAlign=middle;whiteSpace=wrap;rounded=0;" vertex="1" parent="1">
          <mxGeometry x="3168.75" y="562.5" width="42.5" height="40" as="geometry" />
        </mxCell>
        <mxCell id="YUqy2N8KnSU7vUjBaJCi-92" value="&lt;font style=&quot;font-size: 24px;&quot; face=&quot;Courier New&quot;&gt;H&lt;/font&gt;" style="text;html=1;strokeColor=none;fillColor=none;align=center;verticalAlign=middle;whiteSpace=wrap;rounded=0;" vertex="1" parent="1">
          <mxGeometry x="3208.75" y="562.5" width="42.5" height="40" as="geometry" />
        </mxCell>
        <mxCell id="YUqy2N8KnSU7vUjBaJCi-93" value="&lt;font style=&quot;font-size: 24px;&quot; face=&quot;Courier New&quot;&gt;G&lt;/font&gt;" style="text;html=1;strokeColor=none;fillColor=none;align=center;verticalAlign=middle;whiteSpace=wrap;rounded=0;" vertex="1" parent="1">
          <mxGeometry x="3128.75" y="632.5" width="42.5" height="40" as="geometry" />
        </mxCell>
        <mxCell id="YUqy2N8KnSU7vUjBaJCi-94" value="&lt;font style=&quot;font-size: 24px;&quot; face=&quot;Courier New&quot;&gt;E&lt;/font&gt;" style="text;html=1;strokeColor=none;fillColor=none;align=center;verticalAlign=middle;whiteSpace=wrap;rounded=0;" vertex="1" parent="1">
          <mxGeometry x="3168.75" y="632.5" width="42.5" height="40" as="geometry" />
        </mxCell>
        <mxCell id="YUqy2N8KnSU7vUjBaJCi-95" value="&lt;font style=&quot;font-size: 24px;&quot; face=&quot;Courier New&quot;&gt;I&lt;/font&gt;" style="text;html=1;strokeColor=none;fillColor=none;align=center;verticalAlign=middle;whiteSpace=wrap;rounded=0;" vertex="1" parent="1">
          <mxGeometry x="3207.5" y="632.5" width="42.5" height="40" as="geometry" />
        </mxCell>
        <mxCell id="YUqy2N8KnSU7vUjBaJCi-96" value="&lt;font style=&quot;font-size: 24px;&quot; face=&quot;Courier New&quot;&gt;H&lt;/font&gt;" style="text;html=1;strokeColor=none;fillColor=none;align=center;verticalAlign=middle;whiteSpace=wrap;rounded=0;" vertex="1" parent="1">
          <mxGeometry x="3128.75" y="702.5" width="42.5" height="40" as="geometry" />
        </mxCell>
        <mxCell id="YUqy2N8KnSU7vUjBaJCi-97" value="&lt;font style=&quot;font-size: 24px;&quot; face=&quot;Courier New&quot;&gt;F&lt;/font&gt;" style="text;html=1;strokeColor=none;fillColor=none;align=center;verticalAlign=middle;whiteSpace=wrap;rounded=0;" vertex="1" parent="1">
          <mxGeometry x="3168.75" y="702.5" width="42.5" height="40" as="geometry" />
        </mxCell>
        <mxCell id="YUqy2N8KnSU7vUjBaJCi-98" value="&lt;font style=&quot;font-size: 24px;&quot; face=&quot;Courier New&quot;&gt;J&lt;/font&gt;" style="text;html=1;strokeColor=none;fillColor=none;align=center;verticalAlign=middle;whiteSpace=wrap;rounded=0;" vertex="1" parent="1">
          <mxGeometry x="3207.5" y="702.5" width="42.5" height="40" as="geometry" />
        </mxCell>
        <mxCell id="YUqy2N8KnSU7vUjBaJCi-99" value="&lt;font style=&quot;font-size: 24px;&quot; face=&quot;Courier New&quot;&gt;I&lt;/font&gt;" style="text;html=1;strokeColor=none;fillColor=none;align=center;verticalAlign=middle;whiteSpace=wrap;rounded=0;" vertex="1" parent="1">
          <mxGeometry x="3128.75" y="772.5" width="42.5" height="40" as="geometry" />
        </mxCell>
        <mxCell id="YUqy2N8KnSU7vUjBaJCi-100" value="&lt;font style=&quot;font-size: 24px;&quot; face=&quot;Courier New&quot;&gt;G&lt;/font&gt;" style="text;html=1;strokeColor=none;fillColor=none;align=center;verticalAlign=middle;whiteSpace=wrap;rounded=0;" vertex="1" parent="1">
          <mxGeometry x="3168.75" y="772.5" width="42.5" height="40" as="geometry" />
        </mxCell>
        <mxCell id="YUqy2N8KnSU7vUjBaJCi-101" value="&lt;font style=&quot;font-size: 24px;&quot; face=&quot;Courier New&quot;&gt;K&lt;/font&gt;" style="text;html=1;strokeColor=none;fillColor=none;align=center;verticalAlign=middle;whiteSpace=wrap;rounded=0;" vertex="1" parent="1">
          <mxGeometry x="3208.75" y="772.5" width="42.5" height="40" as="geometry" />
        </mxCell>
        <mxCell id="YUqy2N8KnSU7vUjBaJCi-102" value="&lt;font style=&quot;font-size: 24px;&quot; face=&quot;Courier New&quot;&gt;J&lt;/font&gt;" style="text;html=1;strokeColor=none;fillColor=none;align=center;verticalAlign=middle;whiteSpace=wrap;rounded=0;" vertex="1" parent="1">
          <mxGeometry x="3128.75" y="842.5" width="42.5" height="40" as="geometry" />
        </mxCell>
        <mxCell id="YUqy2N8KnSU7vUjBaJCi-103" value="&lt;font style=&quot;font-size: 24px;&quot; face=&quot;Courier New&quot;&gt;H&lt;/font&gt;" style="text;html=1;strokeColor=none;fillColor=none;align=center;verticalAlign=middle;whiteSpace=wrap;rounded=0;" vertex="1" parent="1">
          <mxGeometry x="3168.75" y="842.5" width="42.5" height="40" as="geometry" />
        </mxCell>
        <mxCell id="YUqy2N8KnSU7vUjBaJCi-104" value="&lt;font style=&quot;font-size: 24px;&quot; face=&quot;Courier New&quot;&gt;L&lt;/font&gt;" style="text;html=1;strokeColor=none;fillColor=none;align=center;verticalAlign=middle;whiteSpace=wrap;rounded=0;" vertex="1" parent="1">
          <mxGeometry x="3208.75" y="842.5" width="42.5" height="40" as="geometry" />
        </mxCell>
        <mxCell id="YUqy2N8KnSU7vUjBaJCi-105" value="" style="endArrow=classic;html=1;rounded=0;fillColor=#f8cecc;strokeColor=#b85450;" edge="1" parent="1">
          <mxGeometry width="50" height="50" relative="1" as="geometry">
            <mxPoint x="2889" y="592.5" as="sourcePoint" />
            <mxPoint x="2889" y="572.5" as="targetPoint" />
          </mxGeometry>
        </mxCell>
        <mxCell id="YUqy2N8KnSU7vUjBaJCi-106" value="" style="shape=stencil(tZTbjoMgEIafhtuGw3bvG3b7HlSnldSCi/T09ouATcVqD9HEmMw/8M1PhgExXheiAkRxgdgPopRg7P4uPiexqCvIbBBPwkixKSFkamv0Hs4yt5EhVQFG2ibLfhFeuTXNx3imlXIQqVXdydzlHUxI5fbiS4DF8tdOVDn+ASyYaDKoiK5fxy6W84DJTH672Nb95H6nA3cdk7kaNxmYfI5l3ClDl5vxjcj2O6OPKn9ophLN4PQSbfqgT/BkHB4fswWUUt0BbgP9DuLvKPIGQcKe7xYR42WMLzStkQrvOE0u0GuIxOnXE6eJz9ESvsu9Znl1oMOMb7WBkdZvZVmG53Ok6uACX7pXwavhVffCPw==);whiteSpace=wrap;html=1;fillStyle=auto;shadow=0;fillColor=#ffe6cc;strokeColor=#d79b00;fontSize=24;fontFamily=Courier New;" vertex="1" parent="1">
          <mxGeometry x="2810" y="597.5" width="50" height="40" as="geometry" />
        </mxCell>
        <mxCell id="YUqy2N8KnSU7vUjBaJCi-107" value="" style="shape=stencil(tZTZbsMgEEW/hsdWLIqU14q2/0HsSY3igIvJ9vfBgJMYL00jW7IszR185uKBQYzXhagAUVwg9okoJRi7t4tPSSzqCjIbxKMwUmxKCJnaGr2Dk8xtZEhVgJG2ybIvhD/cmuZhPNNKOYjUqu5kHvIOJqRy3+JzgMXyl05UOf4eLJhoMqiIfj+PfV8tAyYL+e1iW/ez+50P3HVMlmrcbGDyOpZxp4wdbsY3Itv9GH1Q+aCZSjQXp5do03t9hLvL4fswvM+WUEr1QFi/QPg9iLwhkPgbbi6isIrxmSY1aDJF/mM0PUHPMRKrb39ZpYnVySK+0b1+eXWkyYxvtYGJ7m9lWYYJOlF1dIEv3avg1TDYvXAF);whiteSpace=wrap;html=1;fillColor=#ffe6cc;strokeColor=#d79b00;fontSize=24;fontFamily=Courier New;" vertex="1" parent="1">
          <mxGeometry x="2850" y="597.5" width="50" height="40" as="geometry" />
        </mxCell>
        <mxCell id="YUqy2N8KnSU7vUjBaJCi-108" value="" style="shape=stencil(tZTbjoMgEIafhtuGw3bvG3b7HlSnldSCi/T09ouATcVqD9HEmMw/8M1PhgExXheiAkRxgdgPopRg7P4uPiexqCvIbBBPwkixKSFkamv0Hs4yt5EhVQFG2ibLfhFeuTXNx3imlXIQqVXdydzlHUxI5fbiS4DF8tdOVDn+ASyYaDKoiK5fxy6W84DJTH672Nb95H6nA3cdk7kaNxmYfI5l3ClDl5vxjcj2O6OPKn9ophLN4PQSbfqgT/BkHB4fswWUUt0BbgP9DuLvKPIGQcKe7xYR42WMLzStkQrvOE0u0GuIxOnXE6eJz9ESvsu9Znl1oMOMb7WBkdZvZVmG53Ok6uACX7pXwavhVffCPw==);whiteSpace=wrap;html=1;fillStyle=auto;shadow=0;fillColor=#dae8fc;strokeColor=#6c8ebf;fontSize=24;fontFamily=Courier New;" vertex="1" parent="1">
          <mxGeometry x="2890" y="597.5" width="50" height="40" as="geometry" />
        </mxCell>
        <mxCell id="YUqy2N8KnSU7vUjBaJCi-109" value="" style="shape=stencil(tZTZbsMgEEW/hsdWLIqU14q2/0HsSY3igIvJ9vfBgJMYL00jW7IszR185uKBQYzXhagAUVwg9okoJRi7t4tPSSzqCjIbxKMwUmxKCJnaGr2Dk8xtZEhVgJG2ybIvhD/cmuZhPNNKOYjUqu5kHvIOJqRy3+JzgMXyl05UOf4eLJhoMqiIfj+PfV8tAyYL+e1iW/ez+50P3HVMlmrcbGDyOpZxp4wdbsY3Itv9GH1Q+aCZSjQXp5do03t9hLvL4fswvM+WUEr1QFi/QPg9iLwhkPgbbi6isIrxmSY1aDJF/mM0PUHPMRKrb39ZpYnVySK+0b1+eXWkyYxvtYGJ7m9lWYYJOlF1dIEv3avg1TDYvXAF);whiteSpace=wrap;html=1;fillColor=#dae8fc;strokeColor=#6c8ebf;fontSize=24;fontFamily=Courier New;" vertex="1" parent="1">
          <mxGeometry x="2930" y="597.5" width="50" height="40" as="geometry" />
        </mxCell>
        <mxCell id="YUqy2N8KnSU7vUjBaJCi-110" value="&lt;font style=&quot;font-size: 24px;&quot; face=&quot;Courier New&quot;&gt;C&lt;/font&gt;" style="text;html=1;strokeColor=none;fillColor=none;align=center;verticalAlign=middle;whiteSpace=wrap;rounded=0;" vertex="1" parent="1">
          <mxGeometry x="2814.38" y="597.5" width="42.5" height="40" as="geometry" />
        </mxCell>
        <mxCell id="YUqy2N8KnSU7vUjBaJCi-111" value="&lt;font style=&quot;font-size: 24px;&quot; face=&quot;Courier New&quot;&gt;D&lt;/font&gt;" style="text;html=1;strokeColor=none;fillColor=none;align=center;verticalAlign=middle;whiteSpace=wrap;rounded=0;" vertex="1" parent="1">
          <mxGeometry x="2854.38" y="597.5" width="42.5" height="40" as="geometry" />
        </mxCell>
        <mxCell id="YUqy2N8KnSU7vUjBaJCi-112" value="&lt;font style=&quot;font-size: 24px;&quot; face=&quot;Courier New&quot;&gt;E&lt;/font&gt;" style="text;html=1;strokeColor=none;fillColor=none;align=center;verticalAlign=middle;whiteSpace=wrap;rounded=0;" vertex="1" parent="1">
          <mxGeometry x="2895.63" y="597.5" width="42.5" height="40" as="geometry" />
        </mxCell>
        <mxCell id="YUqy2N8KnSU7vUjBaJCi-113" value="&lt;font style=&quot;font-size: 24px;&quot; face=&quot;Courier New&quot;&gt;F&lt;/font&gt;" style="text;html=1;strokeColor=none;fillColor=none;align=center;verticalAlign=middle;whiteSpace=wrap;rounded=0;" vertex="1" parent="1">
          <mxGeometry x="2933.13" y="597.5" width="42.5" height="40" as="geometry" />
        </mxCell>
        <mxCell id="YUqy2N8KnSU7vUjBaJCi-114" value="" style="rounded=0;whiteSpace=wrap;html=1;fillColor=none;strokeColor=#6c8ebf;strokeWidth=2;" vertex="1" parent="1">
          <mxGeometry x="2800" y="592.5" width="190" height="50" as="geometry" />
        </mxCell>
        <mxCell id="YUqy2N8KnSU7vUjBaJCi-115" value="" style="endArrow=classic;html=1;rounded=0;fillColor=#d5e8d4;strokeColor=#82b366;exitX=1;exitY=0.5;exitDx=0;exitDy=0;entryX=-0.009;entryY=0.589;entryDx=0;entryDy=0;entryPerimeter=0;" edge="1" parent="1" source="YUqy2N8KnSU7vUjBaJCi-114" target="YUqy2N8KnSU7vUjBaJCi-77">
          <mxGeometry width="50" height="50" relative="1" as="geometry">
            <mxPoint x="2990" y="627.5" as="sourcePoint" />
            <mxPoint x="3080" y="747.5" as="targetPoint" />
          </mxGeometry>
        </mxCell>
        <mxCell id="YUqy2N8KnSU7vUjBaJCi-116" style="edgeStyle=orthogonalEdgeStyle;rounded=0;orthogonalLoop=1;jettySize=auto;html=1;exitX=0.5;exitY=1;exitDx=0;exitDy=0;" edge="1" parent="1" source="YUqy2N8KnSU7vUjBaJCi-114" target="YUqy2N8KnSU7vUjBaJCi-114">
          <mxGeometry relative="1" as="geometry" />
        </mxCell>
        <mxCell id="YUqy2N8KnSU7vUjBaJCi-117" value="" style="endArrow=classic;html=1;rounded=0;endFill=1;fillColor=#e1d5e7;strokeColor=#9673a6;exitX=1.003;exitY=0.924;exitDx=0;exitDy=0;exitPerimeter=0;entryX=0;entryY=0.5;entryDx=0;entryDy=0;" edge="1" parent="1" source="YUqy2N8KnSU7vUjBaJCi-77">
          <mxGeometry width="50" height="50" relative="1" as="geometry">
            <mxPoint x="3260" y="907.5" as="sourcePoint" />
            <mxPoint x="3350" y="817.5" as="targetPoint" />
          </mxGeometry>
        </mxCell>
        <mxCell id="YUqy2N8KnSU7vUjBaJCi-118" value="" style="endArrow=classic;html=1;rounded=0;endFill=1;fillColor=#e1d5e7;strokeColor=#9673a6;exitX=1;exitY=0.75;exitDx=0;exitDy=0;entryX=0;entryY=0.5;entryDx=0;entryDy=0;" edge="1" parent="1" source="YUqy2N8KnSU7vUjBaJCi-77">
          <mxGeometry width="50" height="50" relative="1" as="geometry">
            <mxPoint x="3260" y="827.5" as="sourcePoint" />
            <mxPoint x="3350" y="817.5" as="targetPoint" />
          </mxGeometry>
        </mxCell>
        <mxCell id="YUqy2N8KnSU7vUjBaJCi-119" value="" style="endArrow=classic;html=1;rounded=0;endFill=1;fillColor=#e1d5e7;strokeColor=#9673a6;exitX=0.997;exitY=0.577;exitDx=0;exitDy=0;exitPerimeter=0;entryX=0;entryY=0.5;entryDx=0;entryDy=0;" edge="1" parent="1" source="YUqy2N8KnSU7vUjBaJCi-77">
          <mxGeometry width="50" height="50" relative="1" as="geometry">
            <mxPoint x="3260" y="747.5" as="sourcePoint" />
            <mxPoint x="3350" y="817.5" as="targetPoint" />
          </mxGeometry>
        </mxCell>
        <mxCell id="YUqy2N8KnSU7vUjBaJCi-120" value="" style="endArrow=classic;html=1;rounded=0;endFill=1;fillColor=#e1d5e7;strokeColor=#9673a6;exitX=0.991;exitY=0.415;exitDx=0;exitDy=0;exitPerimeter=0;entryX=0;entryY=0.5;entryDx=0;entryDy=0;" edge="1" parent="1" source="YUqy2N8KnSU7vUjBaJCi-77">
          <mxGeometry width="50" height="50" relative="1" as="geometry">
            <mxPoint x="3260" y="667.5" as="sourcePoint" />
            <mxPoint x="3350" y="817.5" as="targetPoint" />
          </mxGeometry>
        </mxCell>
        <mxCell id="YUqy2N8KnSU7vUjBaJCi-121" value="" style="endArrow=classic;html=1;rounded=0;endFill=1;fillColor=#e1d5e7;strokeColor=#9673a6;exitX=1;exitY=0.25;exitDx=0;exitDy=0;entryX=0;entryY=0.5;entryDx=0;entryDy=0;" edge="1" parent="1" source="YUqy2N8KnSU7vUjBaJCi-77">
          <mxGeometry width="50" height="50" relative="1" as="geometry">
            <mxPoint x="3260" y="587.5" as="sourcePoint" />
            <mxPoint x="3350" y="817.5" as="targetPoint" />
          </mxGeometry>
        </mxCell>
        <mxCell id="YUqy2N8KnSU7vUjBaJCi-122" value="" style="shape=stencil(tZTbjoMgEIafhtuGw3bvG3b7HlSnldSCi/T09ouATcVqD9HEmMw/8M1PhgExXheiAkRxgdgPopRg7P4uPiexqCvIbBBPwkixKSFkamv0Hs4yt5EhVQFG2ibLfhFeuTXNx3imlXIQqVXdydzlHUxI5fbiS4DF8tdOVDn+ASyYaDKoiK5fxy6W84DJTH672Nb95H6nA3cdk7kaNxmYfI5l3ClDl5vxjcj2O6OPKn9ophLN4PQSbfqgT/BkHB4fswWUUt0BbgP9DuLvKPIGQcKe7xYR42WMLzStkQrvOE0u0GuIxOnXE6eJz9ESvsu9Znl1oMOMb7WBkdZvZVmG53Ok6uACX7pXwavhVffCPw==);whiteSpace=wrap;html=1;fillStyle=auto;shadow=0;rotation=90;fillColor=#ffe6cc;strokeColor=#d79b00;fontSize=24;fontFamily=Courier New;" vertex="1" parent="1">
          <mxGeometry x="3354.75" y="537.5" width="50" height="40" as="geometry" />
        </mxCell>
        <mxCell id="YUqy2N8KnSU7vUjBaJCi-123" value="" style="shape=stencil(tZTbjoMgEIafhtuGw3bvG3b7HlSnldSCi/T09ouATcVqD9HEmMw/8M1PhgExXheiAkRxgdgPopRg7P4uPiexqCvIbBBPwkixKSFkamv0Hs4yt5EhVQFG2ibLfhFeuTXNx3imlXIQqVXdydzlHUxI5fbiS4DF8tdOVDn+ASyYaDKoiK5fxy6W84DJTH672Nb95H6nA3cdk7kaNxmYfI5l3ClDl5vxjcj2O6OPKn9ophLN4PQSbfqgT/BkHB4fswWUUt0BbgP9DuLvKPIGQcKe7xYR42WMLzStkQrvOE0u0GuIxOnXE6eJz9ESvsu9Znl1oMOMb7WBkdZvZVmG53Ok6uACX7pXwavhVffCPw==);whiteSpace=wrap;html=1;fillStyle=auto;shadow=0;rotation=90;fillColor=#ffe6cc;strokeColor=#d79b00;fontSize=24;fontFamily=Courier New;" vertex="1" parent="1">
          <mxGeometry x="3394.75" y="537.5" width="50" height="40" as="geometry" />
        </mxCell>
        <mxCell id="YUqy2N8KnSU7vUjBaJCi-124" value="" style="shape=stencil(tZTbjoMgEIafhtuGw3bvG3b7HlSnldSCi/T09ouATcVqD9HEmMw/8M1PhgExXheiAkRxgdgPopRg7P4uPiexqCvIbBBPwkixKSFkamv0Hs4yt5EhVQFG2ibLfhFeuTXNx3imlXIQqVXdydzlHUxI5fbiS4DF8tdOVDn+ASyYaDKoiK5fxy6W84DJTH672Nb95H6nA3cdk7kaNxmYfI5l3ClDl5vxjcj2O6OPKn9ophLN4PQSbfqgT/BkHB4fswWUUt0BbgP9DuLvKPIGQcKe7xYR42WMLzStkQrvOE0u0GuIxOnXE6eJz9ESvsu9Znl1oMOMb7WBkdZvZVmG53Ok6uACX7pXwavhVffCPw==);whiteSpace=wrap;html=1;fillStyle=auto;shadow=0;rotation=90;fillColor=#dae8fc;strokeColor=#6c8ebf;fontSize=24;fontFamily=Courier New;" vertex="1" parent="1">
          <mxGeometry x="3434.75" y="537.5" width="50" height="40" as="geometry" />
        </mxCell>
        <mxCell id="YUqy2N8KnSU7vUjBaJCi-125" value="" style="shape=stencil(tZTbjoMgEIafhtuGw3bvG3b7HlSnldSCi/T09ouATcVqD9HEmMw/8M1PhgExXheiAkRxgdgPopRg7P4uPiexqCvIbBBPwkixKSFkamv0Hs4yt5EhVQFG2ibLfhFeuTXNx3imlXIQqVXdydzlHUxI5fbiS4DF8tdOVDn+ASyYaDKoiK5fxy6W84DJTH672Nb95H6nA3cdk7kaNxmYfI5l3ClDl5vxjcj2O6OPKn9ophLN4PQSbfqgT/BkHB4fswWUUt0BbgP9DuLvKPIGQcKe7xYR42WMLzStkQrvOE0u0GuIxOnXE6eJz9ESvsu9Znl1oMOMb7WBkdZvZVmG53Ok6uACX7pXwavhVffCPw==);whiteSpace=wrap;html=1;fillStyle=auto;shadow=0;rotation=90;fillColor=#dae8fc;strokeColor=#6c8ebf;fontSize=24;fontFamily=Courier New;" vertex="1" parent="1">
          <mxGeometry x="3474.75" y="537.5" width="50" height="40" as="geometry" />
        </mxCell>
        <mxCell id="YUqy2N8KnSU7vUjBaJCi-126" value="" style="shape=stencil(tZTZbsMgEEW/hsdWLIqU14q2/0HsSY3igIvJ9vfBgJMYL00jW7IszR185uKBQYzXhagAUVwg9okoJRi7t4tPSSzqCjIbxKMwUmxKCJnaGr2Dk8xtZEhVgJG2ybIvhD/cmuZhPNNKOYjUqu5kHvIOJqRy3+JzgMXyl05UOf4eLJhoMqiIfj+PfV8tAyYL+e1iW/ez+50P3HVMlmrcbGDyOpZxp4wdbsY3Itv9GH1Q+aCZSjQXp5do03t9hLvL4fswvM+WUEr1QFi/QPg9iLwhkPgbbi6isIrxmSY1aDJF/mM0PUHPMRKrb39ZpYnVySK+0b1+eXWkyYxvtYGJ7m9lWYYJOlF1dIEv3avg1TDYvXAF);whiteSpace=wrap;html=1;rotation=90;fillColor=#ffe6cc;strokeColor=#d79b00;fontSize=24;fontFamily=Courier New;" vertex="1" parent="1">
          <mxGeometry x="3355.75" y="807.5" width="50" height="40" as="geometry" />
        </mxCell>
        <mxCell id="YUqy2N8KnSU7vUjBaJCi-127" value="" style="shape=stencil(tZTZbsMgEEW/hsdWLIqU14q2/0HsSY3igIvJ9vfBgJMYL00jW7IszR185uKBQYzXhagAUVwg9okoJRi7t4tPSSzqCjIbxKMwUmxKCJnaGr2Dk8xtZEhVgJG2ybIvhD/cmuZhPNNKOYjUqu5kHvIOJqRy3+JzgMXyl05UOf4eLJhoMqiIfj+PfV8tAyYL+e1iW/ez+50P3HVMlmrcbGDyOpZxp4wdbsY3Itv9GH1Q+aCZSjQXp5do03t9hLvL4fswvM+WUEr1QFi/QPg9iLwhkPgbbi6isIrxmSY1aDJF/mM0PUHPMRKrb39ZpYnVySK+0b1+eXWkyYxvtYGJ7m9lWYYJOlF1dIEv3avg1TDYvXAF);whiteSpace=wrap;html=1;rotation=90;fillColor=#ffe6cc;strokeColor=#d79b00;fontSize=24;fontFamily=Courier New;" vertex="1" parent="1">
          <mxGeometry x="3395.75" y="807.5" width="50" height="40" as="geometry" />
        </mxCell>
        <mxCell id="YUqy2N8KnSU7vUjBaJCi-128" value="" style="shape=stencil(tZTZbsMgEEW/hsdWLIqU14q2/0HsSY3igIvJ9vfBgJMYL00jW7IszR185uKBQYzXhagAUVwg9okoJRi7t4tPSSzqCjIbxKMwUmxKCJnaGr2Dk8xtZEhVgJG2ybIvhD/cmuZhPNNKOYjUqu5kHvIOJqRy3+JzgMXyl05UOf4eLJhoMqiIfj+PfV8tAyYL+e1iW/ez+50P3HVMlmrcbGDyOpZxp4wdbsY3Itv9GH1Q+aCZSjQXp5do03t9hLvL4fswvM+WUEr1QFi/QPg9iLwhkPgbbi6isIrxmSY1aDJF/mM0PUHPMRKrb39ZpYnVySK+0b1+eXWkyYxvtYGJ7m9lWYYJOlF1dIEv3avg1TDYvXAF);whiteSpace=wrap;html=1;rotation=90;fillColor=#dae8fc;strokeColor=#6c8ebf;fontSize=24;fontFamily=Courier New;" vertex="1" parent="1">
          <mxGeometry x="3435.75" y="807.5" width="50" height="40" as="geometry" />
        </mxCell>
        <mxCell id="YUqy2N8KnSU7vUjBaJCi-129" value="" style="shape=stencil(tZTZbsMgEEW/hsdWLIqU14q2/0HsSY3igIvJ9vfBgJMYL00jW7IszR185uKBQYzXhagAUVwg9okoJRi7t4tPSSzqCjIbxKMwUmxKCJnaGr2Dk8xtZEhVgJG2ybIvhD/cmuZhPNNKOYjUqu5kHvIOJqRy3+JzgMXyl05UOf4eLJhoMqiIfj+PfV8tAyYL+e1iW/ez+50P3HVMlmrcbGDyOpZxp4wdbsY3Itv9GH1Q+aCZSjQXp5do03t9hLvL4fswvM+WUEr1QFi/QPg9iLwhkPgbbi6isIrxmSY1aDJF/mM0PUHPMRKrb39ZpYnVySK+0b1+eXWkyYxvtYGJ7m9lWYYJOlF1dIEv3avg1TDYvXAF);whiteSpace=wrap;html=1;rotation=90;fillColor=#dae8fc;strokeColor=#6c8ebf;fontSize=24;fontFamily=Courier New;" vertex="1" parent="1">
          <mxGeometry x="3475.75" y="807.5" width="50" height="40" as="geometry" />
        </mxCell>
        <mxCell id="YUqy2N8KnSU7vUjBaJCi-130" value="" style="shape=stencil(tZTbjoMgEIafhtuGw3bvG3b7HlSnldSCi/T09ouATcVqD9HEmMw/8M1PhgExXheiAkRxgdgPopRg7P4uPiexqCvIbBBPwkixKSFkamv0Hs4yt5EhVQFG2ibLfhFeuTXNx3imlXIQqVXdydzlHUxI5fbiS4DF8tdOVDn+ASyYaDKoiK5fxy6W84DJTH672Nb95H6nA3cdk7kaNxmYfI5l3ClDl5vxjcj2O6OPKn9ophLN4PQSbfqgT/BkHB4fswWUUt0BbgP9DuLvKPIGQcKe7xYR42WMLzStkQrvOE0u0GuIxOnXE6eJz9ESvsu9Znl1oMOMb7WBkdZvZVmG53Ok6uACX7pXwavhVffCPw==);whiteSpace=wrap;html=1;fillStyle=auto;shadow=0;fillColor=#ffe6cc;strokeColor=#d79b00;fontSize=24;fontFamily=Courier New;" vertex="1" parent="1">
          <mxGeometry x="3640" y="597" width="50" height="40" as="geometry" />
        </mxCell>
        <mxCell id="YUqy2N8KnSU7vUjBaJCi-131" value="" style="shape=stencil(tZTZbsMgEEW/hsdWLIqU14q2/0HsSY3igIvJ9vfBgJMYL00jW7IszR185uKBQYzXhagAUVwg9okoJRi7t4tPSSzqCjIbxKMwUmxKCJnaGr2Dk8xtZEhVgJG2ybIvhD/cmuZhPNNKOYjUqu5kHvIOJqRy3+JzgMXyl05UOf4eLJhoMqiIfj+PfV8tAyYL+e1iW/ez+50P3HVMlmrcbGDyOpZxp4wdbsY3Itv9GH1Q+aCZSjQXp5do03t9hLvL4fswvM+WUEr1QFi/QPg9iLwhkPgbbi6isIrxmSY1aDJF/mM0PUHPMRKrb39ZpYnVySK+0b1+eXWkyYxvtYGJ7m9lWYYJOlF1dIEv3avg1TDYvXAF);whiteSpace=wrap;html=1;fillColor=#ffe6cc;strokeColor=#d79b00;fontSize=24;fontFamily=Courier New;" vertex="1" parent="1">
          <mxGeometry x="3680" y="597" width="50" height="40" as="geometry" />
        </mxCell>
        <mxCell id="YUqy2N8KnSU7vUjBaJCi-132" value="" style="shape=stencil(tZTbjoMgEIafhtuGw3bvG3b7HlSnldSCi/T09ouATcVqD9HEmMw/8M1PhgExXheiAkRxgdgPopRg7P4uPiexqCvIbBBPwkixKSFkamv0Hs4yt5EhVQFG2ibLfhFeuTXNx3imlXIQqVXdydzlHUxI5fbiS4DF8tdOVDn+ASyYaDKoiK5fxy6W84DJTH672Nb95H6nA3cdk7kaNxmYfI5l3ClDl5vxjcj2O6OPKn9ophLN4PQSbfqgT/BkHB4fswWUUt0BbgP9DuLvKPIGQcKe7xYR42WMLzStkQrvOE0u0GuIxOnXE6eJz9ESvsu9Znl1oMOMb7WBkdZvZVmG53Ok6uACX7pXwavhVffCPw==);whiteSpace=wrap;html=1;fillStyle=auto;shadow=0;fillColor=#dae8fc;strokeColor=#6c8ebf;fontSize=24;fontFamily=Courier New;" vertex="1" parent="1">
          <mxGeometry x="3720" y="597" width="50" height="40" as="geometry" />
        </mxCell>
        <mxCell id="YUqy2N8KnSU7vUjBaJCi-133" value="" style="shape=stencil(tZTZbsMgEEW/hsdWLIqU14q2/0HsSY3igIvJ9vfBgJMYL00jW7IszR185uKBQYzXhagAUVwg9okoJRi7t4tPSSzqCjIbxKMwUmxKCJnaGr2Dk8xtZEhVgJG2ybIvhD/cmuZhPNNKOYjUqu5kHvIOJqRy3+JzgMXyl05UOf4eLJhoMqiIfj+PfV8tAyYL+e1iW/ez+50P3HVMlmrcbGDyOpZxp4wdbsY3Itv9GH1Q+aCZSjQXp5do03t9hLvL4fswvM+WUEr1QFi/QPg9iLwhkPgbbi6isIrxmSY1aDJF/mM0PUHPMRKrb39ZpYnVySK+0b1+eXWkyYxvtYGJ7m9lWYYJOlF1dIEv3avg1TDYvXAF);whiteSpace=wrap;html=1;fillColor=#dae8fc;strokeColor=#6c8ebf;fontSize=24;fontFamily=Courier New;" vertex="1" parent="1">
          <mxGeometry x="3760" y="597" width="50" height="40" as="geometry" />
        </mxCell>
        <mxCell id="YUqy2N8KnSU7vUjBaJCi-134" value="" style="endArrow=classic;html=1;rounded=0;fillColor=#d5e8d4;strokeColor=#82b366;entryX=0;entryY=0.5;entryDx=0;entryDy=0;" edge="1" parent="1" target="YUqy2N8KnSU7vUjBaJCi-136">
          <mxGeometry width="50" height="50" relative="1" as="geometry">
            <mxPoint x="3530" y="557.5" as="sourcePoint" />
            <mxPoint x="3630" y="627" as="targetPoint" />
          </mxGeometry>
        </mxCell>
        <mxCell id="YUqy2N8KnSU7vUjBaJCi-135" value="" style="endArrow=classic;html=1;rounded=0;fillColor=#d5e8d4;strokeColor=#82b366;entryX=0;entryY=0.5;entryDx=0;entryDy=0;" edge="1" parent="1" target="YUqy2N8KnSU7vUjBaJCi-160">
          <mxGeometry width="50" height="50" relative="1" as="geometry">
            <mxPoint x="3530" y="557.5" as="sourcePoint" />
            <mxPoint x="3630" y="787.5" as="targetPoint" />
          </mxGeometry>
        </mxCell>
        <mxCell id="YUqy2N8KnSU7vUjBaJCi-136" value="" style="rounded=0;whiteSpace=wrap;html=1;fillColor=none;strokeColor=#6c8ebf;strokeWidth=2;" vertex="1" parent="1">
          <mxGeometry x="3630" y="592" width="190" height="50.5" as="geometry" />
        </mxCell>
        <mxCell id="YUqy2N8KnSU7vUjBaJCi-137" value="&lt;font style=&quot;font-size: 24px;&quot; face=&quot;Courier New&quot;&gt;C&lt;/font&gt;" style="text;html=1;strokeColor=none;fillColor=none;align=center;verticalAlign=middle;whiteSpace=wrap;rounded=0;" vertex="1" parent="1">
          <mxGeometry x="3644" y="597" width="42.5" height="40" as="geometry" />
        </mxCell>
        <mxCell id="YUqy2N8KnSU7vUjBaJCi-138" value="&lt;font style=&quot;font-size: 24px;&quot; face=&quot;Courier New&quot;&gt;D&lt;/font&gt;" style="text;html=1;strokeColor=none;fillColor=none;align=center;verticalAlign=middle;whiteSpace=wrap;rounded=0;" vertex="1" parent="1">
          <mxGeometry x="3684" y="597" width="42.5" height="40" as="geometry" />
        </mxCell>
        <mxCell id="YUqy2N8KnSU7vUjBaJCi-139" value="&lt;font style=&quot;font-size: 24px;&quot; face=&quot;Courier New&quot;&gt;E&lt;/font&gt;" style="text;html=1;strokeColor=none;fillColor=none;align=center;verticalAlign=middle;whiteSpace=wrap;rounded=0;" vertex="1" parent="1">
          <mxGeometry x="3725.25" y="597" width="42.5" height="40" as="geometry" />
        </mxCell>
        <mxCell id="YUqy2N8KnSU7vUjBaJCi-140" value="&lt;font style=&quot;font-size: 24px;&quot; face=&quot;Courier New&quot;&gt;F&lt;/font&gt;" style="text;html=1;strokeColor=none;fillColor=none;align=center;verticalAlign=middle;whiteSpace=wrap;rounded=0;" vertex="1" parent="1">
          <mxGeometry x="3762.75" y="597" width="42.5" height="40" as="geometry" />
        </mxCell>
        <mxCell id="YUqy2N8KnSU7vUjBaJCi-141" value="&lt;font style=&quot;font-size: 24px;&quot; face=&quot;Courier New&quot;&gt;C&lt;/font&gt;" style="text;html=1;strokeColor=none;fillColor=none;align=center;verticalAlign=middle;whiteSpace=wrap;rounded=0;" vertex="1" parent="1">
          <mxGeometry x="3359.13" y="537.5" width="42.5" height="40" as="geometry" />
        </mxCell>
        <mxCell id="YUqy2N8KnSU7vUjBaJCi-142" value="&lt;font style=&quot;font-size: 24px;&quot; face=&quot;Courier New&quot;&gt;G&lt;/font&gt;" style="text;html=1;strokeColor=none;fillColor=none;align=center;verticalAlign=middle;whiteSpace=wrap;rounded=0;" vertex="1" parent="1">
          <mxGeometry x="3399.13" y="537.5" width="42.5" height="40" as="geometry" />
        </mxCell>
        <mxCell id="YUqy2N8KnSU7vUjBaJCi-143" value="&lt;font style=&quot;font-size: 24px;&quot; face=&quot;Courier New&quot;&gt;E&lt;/font&gt;" style="text;html=1;strokeColor=none;fillColor=none;align=center;verticalAlign=middle;whiteSpace=wrap;rounded=0;" vertex="1" parent="1">
          <mxGeometry x="3439.13" y="537.5" width="42.5" height="40" as="geometry" />
        </mxCell>
        <mxCell id="YUqy2N8KnSU7vUjBaJCi-144" value="&lt;font style=&quot;font-size: 24px;&quot; face=&quot;Courier New&quot;&gt;I&lt;/font&gt;" style="text;html=1;strokeColor=none;fillColor=none;align=center;verticalAlign=middle;whiteSpace=wrap;rounded=0;" vertex="1" parent="1">
          <mxGeometry x="3477.88" y="537.5" width="42.5" height="40" as="geometry" />
        </mxCell>
        <mxCell id="YUqy2N8KnSU7vUjBaJCi-145" value="&lt;font style=&quot;font-size: 24px;&quot; face=&quot;Courier New&quot;&gt;D&lt;/font&gt;" style="text;html=1;strokeColor=none;fillColor=none;align=center;verticalAlign=middle;whiteSpace=wrap;rounded=0;" vertex="1" parent="1">
          <mxGeometry x="3361" y="807.5" width="39.5" height="40" as="geometry" />
        </mxCell>
        <mxCell id="YUqy2N8KnSU7vUjBaJCi-146" value="&lt;font style=&quot;font-size: 24px;&quot; face=&quot;Courier New&quot;&gt;H&lt;/font&gt;" style="text;html=1;strokeColor=none;fillColor=none;align=center;verticalAlign=middle;whiteSpace=wrap;rounded=0;" vertex="1" parent="1">
          <mxGeometry x="3399.25" y="807.5" width="42.5" height="40" as="geometry" />
        </mxCell>
        <mxCell id="YUqy2N8KnSU7vUjBaJCi-147" value="&lt;font style=&quot;font-size: 24px;&quot; face=&quot;Courier New&quot;&gt;F&lt;/font&gt;" style="text;html=1;strokeColor=none;fillColor=none;align=center;verticalAlign=middle;whiteSpace=wrap;rounded=0;" vertex="1" parent="1">
          <mxGeometry x="3439.25" y="807.5" width="42.5" height="40" as="geometry" />
        </mxCell>
        <mxCell id="YUqy2N8KnSU7vUjBaJCi-148" value="&lt;font style=&quot;font-size: 24px;&quot; face=&quot;Courier New&quot;&gt;J&lt;/font&gt;" style="text;html=1;strokeColor=none;fillColor=none;align=center;verticalAlign=middle;whiteSpace=wrap;rounded=0;" vertex="1" parent="1">
          <mxGeometry x="3478" y="807.5" width="42.5" height="40" as="geometry" />
        </mxCell>
        <mxCell id="YUqy2N8KnSU7vUjBaJCi-149" value="" style="rounded=0;whiteSpace=wrap;html=1;fillColor=none;dashed=1;strokeColor=#666666;strokeWidth=2;fontColor=#333333;" vertex="1" parent="1">
          <mxGeometry x="3350" y="527.5" width="180" height="60" as="geometry" />
        </mxCell>
        <mxCell id="YUqy2N8KnSU7vUjBaJCi-150" value="" style="rounded=0;whiteSpace=wrap;html=1;fillColor=none;dashed=1;strokeColor=#666666;strokeWidth=2;fontColor=#333333;" vertex="1" parent="1">
          <mxGeometry x="3351" y="797.5" width="180" height="60" as="geometry" />
        </mxCell>
        <mxCell id="YUqy2N8KnSU7vUjBaJCi-151" value="" style="endArrow=classic;html=1;rounded=0;fillColor=#d5e8d4;strokeColor=#82b366;entryX=0;entryY=0.5;entryDx=0;entryDy=0;exitX=1;exitY=0.5;exitDx=0;exitDy=0;" edge="1" parent="1" source="YUqy2N8KnSU7vUjBaJCi-150" target="YUqy2N8KnSU7vUjBaJCi-136">
          <mxGeometry width="50" height="50" relative="1" as="geometry">
            <mxPoint x="3530" y="867.5" as="sourcePoint" />
            <mxPoint x="3630" y="627.5" as="targetPoint" />
          </mxGeometry>
        </mxCell>
        <mxCell id="YUqy2N8KnSU7vUjBaJCi-152" value="" style="shape=stencil(tZTbjoMgEIafhtuGw3bvG3b7HlSnldSCi/T09ouATcVqD9HEmMw/8M1PhgExXheiAkRxgdgPopRg7P4uPiexqCvIbBBPwkixKSFkamv0Hs4yt5EhVQFG2ibLfhFeuTXNx3imlXIQqVXdydzlHUxI5fbiS4DF8tdOVDn+ASyYaDKoiK5fxy6W84DJTH672Nb95H6nA3cdk7kaNxmYfI5l3ClDl5vxjcj2O6OPKn9ophLN4PQSbfqgT/BkHB4fswWUUt0BbgP9DuLvKPIGQcKe7xYR42WMLzStkQrvOE0u0GuIxOnXE6eJz9ESvsu9Znl1oMOMb7WBkdZvZVmG53Ok6uACX7pXwavhVffCPw==);whiteSpace=wrap;html=1;fillStyle=auto;shadow=0;fillColor=#ffe6cc;strokeColor=#d79b00;fontSize=24;fontFamily=Courier New;" vertex="1" parent="1">
          <mxGeometry x="3640" y="737" width="50" height="40" as="geometry" />
        </mxCell>
        <mxCell id="YUqy2N8KnSU7vUjBaJCi-153" value="" style="shape=stencil(tZTZbsMgEEW/hsdWLIqU14q2/0HsSY3igIvJ9vfBgJMYL00jW7IszR185uKBQYzXhagAUVwg9okoJRi7t4tPSSzqCjIbxKMwUmxKCJnaGr2Dk8xtZEhVgJG2ybIvhD/cmuZhPNNKOYjUqu5kHvIOJqRy3+JzgMXyl05UOf4eLJhoMqiIfj+PfV8tAyYL+e1iW/ez+50P3HVMlmrcbGDyOpZxp4wdbsY3Itv9GH1Q+aCZSjQXp5do03t9hLvL4fswvM+WUEr1QFi/QPg9iLwhkPgbbi6isIrxmSY1aDJF/mM0PUHPMRKrb39ZpYnVySK+0b1+eXWkyYxvtYGJ7m9lWYYJOlF1dIEv3avg1TDYvXAF);whiteSpace=wrap;html=1;fillColor=#ffe6cc;strokeColor=#d79b00;fontSize=24;fontFamily=Courier New;" vertex="1" parent="1">
          <mxGeometry x="3680" y="737" width="50" height="40" as="geometry" />
        </mxCell>
        <mxCell id="YUqy2N8KnSU7vUjBaJCi-154" value="" style="shape=stencil(tZTbjoMgEIafhtuGw3bvG3b7HlSnldSCi/T09ouATcVqD9HEmMw/8M1PhgExXheiAkRxgdgPopRg7P4uPiexqCvIbBBPwkixKSFkamv0Hs4yt5EhVQFG2ibLfhFeuTXNx3imlXIQqVXdydzlHUxI5fbiS4DF8tdOVDn+ASyYaDKoiK5fxy6W84DJTH672Nb95H6nA3cdk7kaNxmYfI5l3ClDl5vxjcj2O6OPKn9ophLN4PQSbfqgT/BkHB4fswWUUt0BbgP9DuLvKPIGQcKe7xYR42WMLzStkQrvOE0u0GuIxOnXE6eJz9ESvsu9Znl1oMOMb7WBkdZvZVmG53Ok6uACX7pXwavhVffCPw==);whiteSpace=wrap;html=1;fillStyle=auto;shadow=0;fillColor=#dae8fc;strokeColor=#6c8ebf;fontSize=24;fontFamily=Courier New;" vertex="1" parent="1">
          <mxGeometry x="3720" y="737" width="50" height="40" as="geometry" />
        </mxCell>
        <mxCell id="YUqy2N8KnSU7vUjBaJCi-155" value="" style="shape=stencil(tZTZbsMgEEW/hsdWLIqU14q2/0HsSY3igIvJ9vfBgJMYL00jW7IszR185uKBQYzXhagAUVwg9okoJRi7t4tPSSzqCjIbxKMwUmxKCJnaGr2Dk8xtZEhVgJG2ybIvhD/cmuZhPNNKOYjUqu5kHvIOJqRy3+JzgMXyl05UOf4eLJhoMqiIfj+PfV8tAyYL+e1iW/ez+50P3HVMlmrcbGDyOpZxp4wdbsY3Itv9GH1Q+aCZSjQXp5do03t9hLvL4fswvM+WUEr1QFi/QPg9iLwhkPgbbi6isIrxmSY1aDJF/mM0PUHPMRKrb39ZpYnVySK+0b1+eXWkyYxvtYGJ7m9lWYYJOlF1dIEv3avg1TDYvXAF);whiteSpace=wrap;html=1;fillColor=#dae8fc;strokeColor=#6c8ebf;fontSize=24;fontFamily=Courier New;" vertex="1" parent="1">
          <mxGeometry x="3760" y="737" width="50" height="40" as="geometry" />
        </mxCell>
        <mxCell id="YUqy2N8KnSU7vUjBaJCi-156" value="&lt;font style=&quot;font-size: 24px;&quot; face=&quot;Courier New&quot;&gt;G&lt;/font&gt;" style="text;html=1;strokeColor=none;fillColor=none;align=center;verticalAlign=middle;whiteSpace=wrap;rounded=0;" vertex="1" parent="1">
          <mxGeometry x="3642.5" y="737" width="42.5" height="40" as="geometry" />
        </mxCell>
        <mxCell id="YUqy2N8KnSU7vUjBaJCi-157" value="&lt;font style=&quot;font-size: 24px;&quot; face=&quot;Courier New&quot;&gt;H&lt;/font&gt;" style="text;html=1;strokeColor=none;fillColor=none;align=center;verticalAlign=middle;whiteSpace=wrap;rounded=0;" vertex="1" parent="1">
          <mxGeometry x="3682.5" y="737" width="42.5" height="40" as="geometry" />
        </mxCell>
        <mxCell id="YUqy2N8KnSU7vUjBaJCi-158" value="&lt;font style=&quot;font-size: 24px;&quot; face=&quot;Courier New&quot;&gt;I&lt;/font&gt;" style="text;html=1;strokeColor=none;fillColor=none;align=center;verticalAlign=middle;whiteSpace=wrap;rounded=0;" vertex="1" parent="1">
          <mxGeometry x="3722.5" y="737" width="42.5" height="40" as="geometry" />
        </mxCell>
        <mxCell id="YUqy2N8KnSU7vUjBaJCi-159" value="&lt;font style=&quot;font-size: 24px;&quot; face=&quot;Courier New&quot;&gt;J&lt;/font&gt;" style="text;html=1;strokeColor=none;fillColor=none;align=center;verticalAlign=middle;whiteSpace=wrap;rounded=0;" vertex="1" parent="1">
          <mxGeometry x="3763.75" y="737" width="42.5" height="40" as="geometry" />
        </mxCell>
        <mxCell id="YUqy2N8KnSU7vUjBaJCi-160" value="" style="rounded=0;whiteSpace=wrap;html=1;fillColor=none;strokeColor=#6c8ebf;strokeWidth=2;" vertex="1" parent="1">
          <mxGeometry x="3630" y="732" width="190" height="50" as="geometry" />
        </mxCell>
        <mxCell id="YUqy2N8KnSU7vUjBaJCi-161" value="" style="endArrow=classic;html=1;rounded=0;fillColor=#d5e8d4;strokeColor=#82b366;exitX=1;exitY=0.5;exitDx=0;exitDy=0;entryX=0;entryY=0.5;entryDx=0;entryDy=0;" edge="1" parent="1" source="YUqy2N8KnSU7vUjBaJCi-150" target="YUqy2N8KnSU7vUjBaJCi-160">
          <mxGeometry width="50" height="50" relative="1" as="geometry">
            <mxPoint x="3530" y="867.5" as="sourcePoint" />
            <mxPoint x="3630" y="787.5" as="targetPoint" />
          </mxGeometry>
        </mxCell>
        <mxCell id="YUqy2N8KnSU7vUjBaJCi-162" value="A" style="rounded=0;whiteSpace=wrap;html=1;fillColor=#f5f5f5;fontFamily=Courier New;fontSize=24;strokeColor=#666666;fontColor=#333333;shadow=1;" vertex="1" parent="1">
          <mxGeometry x="2715" y="440" width="40" height="40" as="geometry" />
        </mxCell>
        <mxCell id="YUqy2N8KnSU7vUjBaJCi-163" value="B" style="rounded=0;whiteSpace=wrap;html=1;fillColor=#f5f5f5;fontFamily=Courier New;fontSize=24;strokeColor=#666666;fontColor=#333333;shadow=1;" vertex="1" parent="1">
          <mxGeometry x="2715" y="480" width="40" height="40" as="geometry" />
        </mxCell>
        <mxCell id="YUqy2N8KnSU7vUjBaJCi-164" value="C" style="rounded=0;whiteSpace=wrap;html=1;fillColor=#f5f5f5;fontFamily=Courier New;fontSize=24;strokeColor=#666666;fontColor=#333333;shadow=1;" vertex="1" parent="1">
          <mxGeometry x="2715" y="520" width="40" height="40" as="geometry" />
        </mxCell>
        <mxCell id="YUqy2N8KnSU7vUjBaJCi-165" value="D" style="rounded=0;whiteSpace=wrap;html=1;fillColor=#f5f5f5;fontFamily=Courier New;fontSize=24;strokeColor=#666666;fontColor=#333333;shadow=1;" vertex="1" parent="1">
          <mxGeometry x="2715" y="560" width="40" height="40" as="geometry" />
        </mxCell>
        <mxCell id="YUqy2N8KnSU7vUjBaJCi-166" value="E" style="rounded=0;whiteSpace=wrap;html=1;fillColor=#f5f5f5;fontFamily=Courier New;fontSize=24;strokeColor=#666666;fontColor=#333333;shadow=1;" vertex="1" parent="1">
          <mxGeometry x="2715" y="600" width="40" height="40" as="geometry" />
        </mxCell>
        <mxCell id="YUqy2N8KnSU7vUjBaJCi-167" value="F" style="rounded=0;whiteSpace=wrap;html=1;fillColor=#f5f5f5;fontFamily=Courier New;fontSize=24;strokeColor=#666666;fontColor=#333333;shadow=1;" vertex="1" parent="1">
          <mxGeometry x="2715" y="640" width="40" height="40" as="geometry" />
        </mxCell>
        <mxCell id="YUqy2N8KnSU7vUjBaJCi-168" value="G" style="rounded=0;whiteSpace=wrap;html=1;fillColor=#f5f5f5;fontFamily=Courier New;fontSize=24;strokeColor=#666666;fontColor=#333333;shadow=1;" vertex="1" parent="1">
          <mxGeometry x="2715" y="680" width="40" height="40" as="geometry" />
        </mxCell>
        <mxCell id="YUqy2N8KnSU7vUjBaJCi-169" value="H" style="rounded=0;whiteSpace=wrap;html=1;fillColor=#f5f5f5;fontFamily=Courier New;fontSize=24;strokeColor=#666666;fontColor=#333333;shadow=1;" vertex="1" parent="1">
          <mxGeometry x="2715" y="720" width="40" height="40" as="geometry" />
        </mxCell>
        <mxCell id="YUqy2N8KnSU7vUjBaJCi-170" value="I" style="rounded=0;whiteSpace=wrap;html=1;fillColor=#f5f5f5;fontFamily=Courier New;fontSize=24;strokeColor=#666666;fontColor=#333333;shadow=1;" vertex="1" parent="1">
          <mxGeometry x="2715" y="760" width="40" height="40" as="geometry" />
        </mxCell>
        <mxCell id="YUqy2N8KnSU7vUjBaJCi-171" value="J" style="rounded=0;whiteSpace=wrap;html=1;fillColor=#f5f5f5;fontFamily=Courier New;fontSize=24;strokeColor=#666666;fontColor=#333333;shadow=1;" vertex="1" parent="1">
          <mxGeometry x="2715" y="800" width="40" height="40" as="geometry" />
        </mxCell>
        <mxCell id="YUqy2N8KnSU7vUjBaJCi-172" value="K" style="rounded=0;whiteSpace=wrap;html=1;fillColor=#f5f5f5;fontFamily=Courier New;fontSize=24;strokeColor=#666666;fontColor=#333333;shadow=1;" vertex="1" parent="1">
          <mxGeometry x="2715" y="840" width="40" height="40" as="geometry" />
        </mxCell>
        <mxCell id="YUqy2N8KnSU7vUjBaJCi-173" value="L" style="rounded=0;whiteSpace=wrap;html=1;fillColor=#f5f5f5;fontFamily=Courier New;fontSize=24;strokeColor=#666666;fontColor=#333333;shadow=1;" vertex="1" parent="1">
          <mxGeometry x="2715" y="880" width="40" height="40" as="geometry" />
        </mxCell>
        <mxCell id="YUqy2N8KnSU7vUjBaJCi-174" value="&lt;font face=&quot;Times New Roman&quot; style=&quot;font-size: 24px;&quot;&gt;...&lt;/font&gt;" style="rounded=0;whiteSpace=wrap;html=1;fillColor=#f5f5f5;fontFamily=Courier New;fontSize=24;strokeColor=#666666;fontColor=#333333;shadow=1;" vertex="1" parent="1">
          <mxGeometry x="2715" y="920" width="40" height="40" as="geometry" />
        </mxCell>
        <mxCell id="YUqy2N8KnSU7vUjBaJCi-175" value="" style="rounded=1;whiteSpace=wrap;html=1;fillColor=none;strokeColor=#6c8ebf;strokeWidth=2;" vertex="1" parent="1">
          <mxGeometry x="2710" y="516.25" width="50" height="167.5" as="geometry" />
        </mxCell>
        <mxCell id="YUqy2N8KnSU7vUjBaJCi-176" value="" style="rounded=1;whiteSpace=wrap;html=1;fillColor=none;strokeColor=#6c8ebf;strokeWidth=2;" vertex="1" parent="1">
          <mxGeometry x="2710" y="676.25" width="50" height="167.5" as="geometry" />
        </mxCell>
        <mxCell id="YUqy2N8KnSU7vUjBaJCi-177" value="" style="endArrow=classic;html=1;rounded=0;entryX=0;entryY=0.5;entryDx=0;entryDy=0;fillColor=#dae8fc;strokeColor=#6c8ebf;" edge="1" parent="1" target="YUqy2N8KnSU7vUjBaJCi-114">
          <mxGeometry width="50" height="50" relative="1" as="geometry">
            <mxPoint x="2760" y="600" as="sourcePoint" />
            <mxPoint x="2805" y="532.5" as="targetPoint" />
          </mxGeometry>
        </mxCell>
        <mxCell id="YUqy2N8KnSU7vUjBaJCi-178" value="" style="endArrow=classic;html=1;rounded=0;entryX=0;entryY=0.5;entryDx=0;entryDy=0;fillColor=#dae8fc;strokeColor=#6c8ebf;" edge="1" parent="1" target="YUqy2N8KnSU7vUjBaJCi-78">
          <mxGeometry width="50" height="50" relative="1" as="geometry">
            <mxPoint x="2760" y="763.75" as="sourcePoint" />
            <mxPoint x="2805" y="696.25" as="targetPoint" />
          </mxGeometry>
        </mxCell>
        <mxCell id="YUqy2N8KnSU7vUjBaJCi-179" value="" style="group" vertex="1" connectable="0" parent="1">
          <mxGeometry x="3560" y="467.5" width="330" height="110" as="geometry" />
        </mxCell>
        <mxCell id="YUqy2N8KnSU7vUjBaJCi-180" value="" style="endArrow=classic;html=1;rounded=0;fillColor=#f8cecc;strokeColor=#b85450;strokeWidth=2;" edge="1" parent="YUqy2N8KnSU7vUjBaJCi-179">
          <mxGeometry width="50" height="50" relative="1" as="geometry">
            <mxPoint x="13" y="20.5" as="sourcePoint" />
            <mxPoint x="73.38000000000011" y="20" as="targetPoint" />
            <Array as="points" />
          </mxGeometry>
        </mxCell>
        <mxCell id="YUqy2N8KnSU7vUjBaJCi-181" value="&lt;font style=&quot;font-size: 19px;&quot; face=&quot;Courier New&quot;&gt;Permute(Cross-lane)&lt;/font&gt;" style="text;html=1;strokeColor=#b85450;fillColor=none;align=center;verticalAlign=middle;whiteSpace=wrap;rounded=0;dashed=1;strokeWidth=1;dashPattern=8 8;" vertex="1" parent="YUqy2N8KnSU7vUjBaJCi-179">
          <mxGeometry x="87.26000000000022" y="6" width="232.12" height="29" as="geometry" />
        </mxCell>
        <mxCell id="YUqy2N8KnSU7vUjBaJCi-182" value="&lt;font style=&quot;font-size: 19px;&quot; face=&quot;Courier New&quot;&gt;Shuffle(In-lane)&lt;/font&gt;" style="text;html=1;strokeColor=#82b366;fillColor=none;align=center;verticalAlign=middle;whiteSpace=wrap;rounded=0;dashed=1;strokeWidth=1;dashPattern=8 8;" vertex="1" parent="YUqy2N8KnSU7vUjBaJCi-179">
          <mxGeometry x="87.26000000000022" y="41" width="232.12" height="29" as="geometry" />
        </mxCell>
        <mxCell id="YUqy2N8KnSU7vUjBaJCi-183" value="" style="endArrow=classic;html=1;rounded=0;fillColor=#d5e8d4;strokeColor=#82b366;strokeWidth=2;" edge="1" parent="YUqy2N8KnSU7vUjBaJCi-179">
          <mxGeometry width="50" height="50" relative="1" as="geometry">
            <mxPoint x="13.38000000000011" y="55" as="sourcePoint" />
            <mxPoint x="73.38000000000011" y="55" as="targetPoint" />
          </mxGeometry>
        </mxCell>
        <mxCell id="YUqy2N8KnSU7vUjBaJCi-184" value="&lt;font style=&quot;font-size: 19px;&quot; face=&quot;Courier New&quot;&gt;Calculate&lt;/font&gt;" style="text;html=1;strokeColor=#9673a6;fillColor=none;align=center;verticalAlign=middle;whiteSpace=wrap;rounded=0;dashed=1;strokeWidth=1;dashPattern=8 8;" vertex="1" parent="YUqy2N8KnSU7vUjBaJCi-179">
          <mxGeometry x="85.88000000000011" y="75.5" width="232.12" height="29" as="geometry" />
        </mxCell>
        <mxCell id="YUqy2N8KnSU7vUjBaJCi-185" value="" style="endArrow=classic;html=1;rounded=0;fillColor=#e1d5e7;strokeColor=#9673a6;strokeWidth=2;" edge="1" parent="YUqy2N8KnSU7vUjBaJCi-179">
          <mxGeometry width="50" height="50" relative="1" as="geometry">
            <mxPoint x="12" y="89.5" as="sourcePoint" />
            <mxPoint x="72" y="89.5" as="targetPoint" />
          </mxGeometry>
        </mxCell>
        <mxCell id="YUqy2N8KnSU7vUjBaJCi-186" value="" style="rounded=0;whiteSpace=wrap;html=1;fillColor=none;container=0;" vertex="1" parent="YUqy2N8KnSU7vUjBaJCi-179">
          <mxGeometry width="330" height="110" as="geometry" />
        </mxCell>
      </root>
    </mxGraphModel>
  </diagram>
</mxfile>
